<svg xmlns="http://www.w3.org/2000/svg" xmlns:xlink="http://www.w3.org/1999/xlink" viewBox="0 0 352.5 77.7" xmlns:v="https://vecta.io/nano"><path d="M0 0h352.5v77.7H0z" fill="#fff"/><g fill="#60769a"><path d="M92.4 38.7c.3-.6.8-1.2 1.4-1.5.6-.4 1.3-.6 2-.5.8 0 1.6.2 2.2.7s1.1 1.1 1.4 1.9h-1.2c-.2-.5-.6-.9-1-1.2s-1-.4-1.5-.4-1 .1-1.5.4c-.4.3-.8.7-1 1.2-.3.5-.4 1.2-.4 1.8s.1 1.2.4 1.7c.2.5.6.9 1 1.2a2.99 2.99 0 0 0 2.9 0c.4-.3.8-.7 1-1.2h1.2c-.3.8-.8 1.4-1.4 1.9-.7.4-1.5.7-2.2.7s-1.4-.2-2-.5c-.6-.4-1.1-.9-1.4-1.5-.7-1.7-.7-3.4.1-4.7h0zM101 40c.2-.5.6-.9 1-1.2s1-.4 1.5-.4 1 .1 1.4.4a1.96 1.96 0 0 1 .9.9v-1.2h1V45h-1v-1.2c-.2.4-.5.8-.9 1-.4.3-.9.4-1.4.4s-1-.1-1.5-.4c-.4-.3-.8-.7-1-1.2-.3-.6-.4-1.2-.4-1.8s.1-1.3.4-1.8zm4.6.5c-.2-.3-.4-.6-.8-.8a1.69 1.69 0 0 0-1-.3 1.69 1.69 0 0 0-1 .3c-.3.2-.6.5-.8.8a3.08 3.08 0 0 0-.3 1.3c0 .5.1.9.3 1.3a1.56 1.56 0 0 0 .8.8 1.69 1.69 0 0 0 1 .3 1.69 1.69 0 0 0 1-.3c.3-.2.6-.5.8-.8a3.08 3.08 0 0 0 .3-1.3l-.3-1.3h0zm7.8-1.4c.5.6.7 1.3.7 2.1V45h-1v-3.7c0-.5-.1-1.1-.5-1.5-.3-.4-.8-.5-1.3-.5s-1 .2-1.3.5c-.3.4-.5 1-.5 1.6V45h-1v-6.5h1v.9c.2-.3.5-.6.8-.8 1.1-.5 2.3-.3 3.1.5h0zm3.6.3v3.9c0 .2 0 .5.2.7.2.1.4.2.7.2h.8v.8h-.9c-.5 0-.9-.1-1.3-.4-.3-.4-.5-.9-.4-1.4v-3.8h-.8v-.9h.8v-1.7h1v1.7h1.6v.9H117z"/><use xlink:href="#B"/><path d="M122.7 40c.2-.5.6-.9 1.1-1.2.4-.3 1-.4 1.5-.4s.9.1 1.3.4c.4.2.8.5 1 .9v-3.5h1V45h-1v-1.2c-.2.4-.5.8-.9 1-.4.3-.9.4-1.4.4s-1-.1-1.5-.4-.8-.7-1.1-1.2c-.3-.6-.4-1.2-.4-1.8s.1-1.2.4-1.8zm4.5.5c-.2-.3-.4-.6-.8-.8a1.99 1.99 0 0 0-2.1 0c-.3.2-.6.5-.8.8a3.08 3.08 0 0 0-.3 1.3c0 .5.1.9.3 1.3.2.3.4.6.8.8a1.99 1.99 0 0 0 2.1 0c.3-.2.6-.5.8-.8a3.08 3.08 0 0 0 .3-1.3c0-.5-.1-.9-.3-1.3h0zm3.1-.5c.2-.5.6-.9 1.1-1.2.4-.3 1-.4 1.5-.4s1 .1 1.4.4a1.96 1.96 0 0 1 .9.9v-1.2h1V45h-1v-1.2c-.2.4-.5.8-.9 1-.4.3-.9.4-1.4.4s-1-.1-1.5-.4-.8-.7-1.1-1.2c-.3-.6-.4-1.2-.4-1.8s.1-1.2.4-1.8zm4.6.5c-.2-.3-.4-.6-.8-.8-.3-.2-.7-.3-1.1-.3a1.69 1.69 0 0 0-1 .3c-.3.2-.6.5-.8.8a3.08 3.08 0 0 0-.3 1.3c0 .5.1.9.3 1.3a1.56 1.56 0 0 0 .8.8 1.69 1.69 0 0 0 1 .3c.4 0 .7-.1 1.1-.3.3-.2.6-.5.8-.8a3.08 3.08 0 0 0 .3-1.3l-.3-1.3h0zm3-.5c.2-.5.6-.9 1.1-1.2s1-.4 1.5-.4.9.1 1.3.4a1.96 1.96 0 0 1 .9.9v-3.5h1V45h-1v-1.2c-.2.4-.5.8-.9 1-.4.3-.9.4-1.4.4s-1-.2-1.5-.4c-.5-.3-.8-.7-1.1-1.2-.3-.6-.4-1.2-.4-1.8.1-.6.3-1.2.5-1.8zm4.6.5c-.2-.3-.4-.6-.8-.8-.3-.2-.7-.3-1.1-.3a1.69 1.69 0 0 0-1 .3c-.3.2-.6.5-.8.8a3.08 3.08 0 0 0-.3 1.3c0 .5.1.9.3 1.3a1.56 1.56 0 0 0 .8.8 1.69 1.69 0 0 0 1 .3c.4 0 .7-.1 1.1-.3.3-.2.6-.5.8-.8a3.08 3.08 0 0 0 .3-1.3c0-.5-.1-.9-.3-1.3h0zm6.2-1.8c.3-.6.8-1.2 1.4-1.5.6-.4 1.3-.6 2-.5.8 0 1.6.2 2.2.7.7.5 1.1 1.1 1.4 1.9h-1.2c-.4-1-1.4-1.6-2.4-1.6-.5 0-1 .1-1.5.4-.4.3-.8.7-1 1.2-.3.5-.4 1.2-.4 1.8s.1 1.2.4 1.7c.2.5.6.9 1 1.2s1 .4 1.5.4 1-.1 1.5-.4a2.73 2.73 0 0 0 .9-1.2h1.2c-.3.8-.7 1.4-1.4 1.9-.7.4-1.4.7-2.2.7-.7 0-1.4-.2-2-.5-.6-.4-1.1-.9-1.4-1.5-.7-1.7-.7-3.4 0-4.7zm13.1 2.2c-.6.5-1.3.7-2.1.7h-1.5V45h-1v-8.3h2.5c.7 0 1.5.2 2 .7s.7 1.1.7 1.8c.1.6-.1 1.2-.6 1.7zm-.8-.7c.3-.3.4-.7.4-1.1 0-1-.6-1.5-1.7-1.5h-1.5v3.1h1.5c.5 0 1-.2 1.3-.5h0zm3.8-2.6v2.8h2.9v.9h-2.9v2.9h3.2v.8h-4.2v-8.3h4.2v.9h-3.2zm8.8 0v2.8h2.9v.9h-2.9v2.9h3.2v.8h-4.2v-8.3h4.2v.9h-3.2zm13.5 1.1c.4.2.7.6.9 1 .2.5.3 1 .3 1.5V45h-1v-3.7c0-.5-.1-1.1-.5-1.5-.3-.4-.8-.5-1.2-.5-.5 0-1 .2-1.3.5-.3.4-.5 1-.5 1.6V45h-1v-3.7c0-.5-.1-1.1-.5-1.5-.3-.4-.8-.5-1.2-.5-.5 0-1 .2-1.3.5-.3.4-.5 1-.5 1.6V45h-1v-6.5h1v1c.2-.3.5-.6.8-.8s.7-.3 1.1-.3c.5 0 1 .1 1.4.4s.7.6.9 1.1c.2-.4.5-.8.9-1.1s.9-.4 1.3-.4c.5-.1 1 0 1.4.3z"/><use xlink:href="#B" x="70.1"/><path d="M194 39.4v3.9c0 .2 0 .5.2.7.2.1.4.2.7.2h.8v.8h-.9c-.5 0-.9-.1-1.3-.4-.3-.4-.5-.9-.4-1.4v-3.8h-.8v-.9h.8v-1.7h1v1.7h1.6v.9H194z"/><use xlink:href="#B" x="77"/><path d="M199.6 40c.2-.5.6-.9 1-1.2s1-.4 1.5-.4.9.1 1.4.4a1.96 1.96 0 0 1 .9.9v-3.5h1V45h-1v-1.2c-.2.4-.5.8-.9 1-.4.3-.9.4-1.4.4s-1-.1-1.5-.4c-.4-.3-.8-.7-1-1.2-.3-.6-.4-1.2-.4-1.8s.2-1.3.4-1.8zm4.6.5c-.2-.3-.4-.6-.8-.8a1.69 1.69 0 0 0-1-.3c-.4 0-.7.1-1.1.3-.3.2-.6.5-.8.8a3.08 3.08 0 0 0-.3 1.3c0 .5.1.9.3 1.3a1.56 1.56 0 0 0 .8.8c.3.2.7.3 1.1.3a1.69 1.69 0 0 0 1-.3c.3-.2.6-.5.8-.8a3.08 3.08 0 0 0 .3-1.3c0-.5-.1-.9-.3-1.3h0zm4.2 4.2c-.5-.3-.9-.7-1.1-1.2-.3-.6-.4-1.2-.4-1.8s.1-1.2.4-1.8c.2-.5.6-.9 1.1-1.2s1-.4 1.6-.4 1.1.1 1.6.4.9.7 1.1 1.2c.3.6.4 1.2.4 1.8s-.1 1.2-.4 1.8c-.3.5-.7.9-1.1 1.2-.5.3-1 .4-1.6.4-.6.1-1.2-.1-1.6-.4zm2.6-.8c.3-.2.6-.5.8-.8a3.08 3.08 0 0 0 .3-1.3c0-.5-.1-.9-.3-1.3-.3-.7-1-1.1-1.8-1.1a1.69 1.69 0 0 0-1 .3c-.3.2-.6.5-.8.8a3.08 3.08 0 0 0-.3 1.3c0 .5.1.9.3 1.3.2.3.4.6.7.8a1.69 1.69 0 0 0 1 .3c.4 0 .8-.1 1.1-.3h0zm4.4 1c-.4-.2-.7-.4-.9-.7s-.3-.7-.4-1.1h1c0 .3.2.6.4.8a1.69 1.69 0 0 0 1 .3c.3 0 .7-.1.9-.3s.3-.4.3-.7-.1-.5-.4-.6c-.4-.2-.7-.3-1.1-.4s-.8-.2-1.1-.4c-.3-.1-.5-.3-.7-.6a1.69 1.69 0 0 1-.3-1c0-.3.1-.7.3-.9.2-.3.5-.5.8-.7.4-.2.8-.3 1.2-.2.6 0 1.2.2 1.7.6.4.4.7.9.7 1.5h-1c0-.3-.1-.6-.4-.8s-.6-.3-.9-.3-.6.1-.9.2c-.2.2-.3.4-.3.7 0 .2.1.4.2.5s.3.3.5.3l.8.3c.4.1.7.2 1.1.4.3.1.5.3.7.6a1.69 1.69 0 0 1 .3 1 1.69 1.69 0 0 1-.3 1c-.2.3-.5.5-.8.7-.4.2-.8.3-1.2.2s-.8-.2-1.2-.4zm25-7V36h3.1v8.8h-2v-6.9h-1.1zm10.2-.2h-3.5v1.7c.2-.2.4-.3.6-.4.8-.3 1.6-.2 2.3.2.4.3.7.6.8 1.1.2.4.3.9.3 1.4 0 .8-.2 1.6-.8 2.2-.5.6-1.3.9-2.1.8a4.53 4.53 0 0 1-1.6-.3c-.4-.2-.8-.5-1-.9s-.4-.9-.4-1.4h1.9c0 .2.2.5.3.6.2.2.4.3.7.2.3 0 .6-.1.8-.4a1.69 1.69 0 0 0 .3-1c0-.3-.1-.6-.3-.9-.2-.2-.5-.3-.8-.3-.2 0-.4.1-.6.2a.55.55 0 0 0-.3.5h-1.9v-5.2h5.3v1.9zm1.4.2V36h3.1v8.8h-2v-6.9H252z"/></g><g fill="#00da92"><path d="M34.8 20.4h26.8c3.2 0 5.7 2.6 5.7 5.7v26.8c0 3.2-2.6 5.7-5.7 5.7H34.8c-3.2 0-5.7-2.6-5.7-5.7V26.1c-.1-3.1 2.5-5.7 5.7-5.7z" opacity=".1" enable-background="new"/><path d="M52.2 35.8h4l-4.9-4.9v4c0 .5.3.9.8.9h.1zm0 1.8c-1.5 0-2.7-1.2-2.7-2.6v-.1-4.5H45c-1.5 0-2.7 1.1-2.7 2.6v.1 12.7c0 1.5 1.1 2.7 2.6 2.7h.1 9c1.5 0 2.7-1.1 2.7-2.6v-.1-8.1l-4.5-.1zm-1.9 6.3c-.1.5-.5.9-1 .8-.4 0-.8-.4-.8-.8v-1.8c-.1-.5.3-.9.8-1s.9.3 1 .8v.2 1.8zm-.9-3.6c-.5 0-.9-.4-.9-.9s.4-.9.9-.9.9.4.9.9h0c0 .5-.3.9-.8.9h-.1z"/></g><path d="M279.4 29H319c2.5 0 4.5 2 4.5 4.4V47a4.48 4.48 0 0 1-4.5 4.5h-39.7a4.48 4.48 0 0 1-4.5-4.5V33.4a4.62 4.62 0 0 1 4.6-4.4z" fill="#f3f5f9"/><path d="M313.9 35.2c-2.6-2.6-6.9-2.6-9.5.1-2.6 2.6-2.6 6.9.1 9.5 2.6 2.6 6.9 2.6 9.5-.1 1.3-1.3 2-3 1.9-4.8s-.8-3.5-2-4.7zm-4.8-.2c.8 0 1.5.6 1.5 1.4s-.6 1.5-1.4 1.5-1.5-.6-1.5-1.4c0-.9.6-1.5 1.4-1.5zm1.8 9.2h-3.7v-.8h.8v-3.9h-.8v-.8h2.9v4.7h.8v.8z" fill="#60769a"/><path d="M289.5 32.4h0c4.1 0 7.5 3.4 7.5 7.5h0c0 4.1-3.4 7.5-7.5 7.5h0c-4.1 0-7.5-3.4-7.5-7.5h0c0-4.2 3.3-7.5 7.5-7.5z" fill="#fff"/><path d="M286.3 42.4c.4 0 .8-.3.8-.7v-.2l1.5-1.5h.3l.8.8v.2c0 .4.3.8.8.8.4 0 .8-.4.8-.8v-.1l1.9-1.9h0c.4 0 .8-.4.8-.8s-.4-.8-.8-.8-.8.4-.8.8v.1l-1.9 1.9h-.1l-.9-1c0-.4-.4-.8-.8-.7a.68.68 0 0 0-.7.7l-1.6 1.6h0c-.4 0-.8.4-.8.8-.1.5.2.8.7.8z" fill="#0074fd"/><defs ><path id="B" d="M119.9 37.2c-.1-.1-.2-.3-.2-.5s.1-.4.2-.5.3-.2.5-.2.4.1.5.2.2.3.2.5-.1.4-.2.5-.3.2-.5.2-.4-.1-.5-.2zm1 1.3V45h-1v-6.5h1z"/></defs></svg>