<svg xmlns="http://www.w3.org/2000/svg" xmlns:xlink="http://www.w3.org/1999/xlink" viewBox="0 0 742.87 416.16" xmlns:v="https://vecta.io/nano"><path d="M0 0h742.87v416.16H0z" fill="#fff"/><rect x="42.08" y="345.86" width="194.09" height="34.87" rx="3.31" fill="#0074fd"/><path d="M705.37 381.23H581.61a3.82 3.82 0 0 1-3.81-3.81v-28.25a3.82 3.82 0 0 1 3.81-3.81h123.76a3.82 3.82 0 0 1 3.81 3.81v28.25a3.82 3.82 0 0 1-3.81 3.81zm-123.76-34.87a2.81 2.81 0 0 0-2.81 2.81v28.25a2.81 2.81 0 0 0 2.81 2.81h123.76a2.81 2.81 0 0 0 2.81-2.81v-28.25a2.81 2.81 0 0 0-2.81-2.81z" fill="#60769a" opacity=".58"/><path d="M91.24 364.46h-3.43l-.63 1.86H86.1l2.84-8.32h1.18l2.88 8.32h-1.13zm-.3-.89l-1.42-4.22-1.42 4.22zm7.2-3.57a2.45 2.45 0 0 1 .9.94v-1.2h1v6.72a3.46 3.46 0 0 1-.36 1.6 2.69 2.69 0 0 1-1 1.1 3 3 0 0 1-1.56.39 3.26 3.26 0 0 1-2-.61 2.43 2.43 0 0 1-1-1.67h1a1.7 1.7 0 0 0 .7 1 2.21 2.21 0 0 0 1.27.36 1.78 1.78 0 0 0 1.38-.56 2.19 2.19 0 0 0 .54-1.58v-1.38a2.54 2.54 0 0 1-2.3 1.34 2.71 2.71 0 0 1-1.5-.43 3 3 0 0 1-1-1.21 4.08 4.08 0 0 1-.38-1.78 4 4 0 0 1 .38-1.77 3 3 0 0 1 1-1.18 2.78 2.78 0 0 1 1.5-.42 2.59 2.59 0 0 1 1.43.34zm.62 1.72a2.1 2.1 0 0 0-.76-.85 1.94 1.94 0 0 0-1.06-.29 2 2 0 0 0-1 .28 2.19 2.19 0 0 0-.75.84 2.8 2.8 0 0 0-.28 1.3 2.84 2.84 0 0 0 .28 1.31 2.12 2.12 0 0 0 .75.86 2.06 2.06 0 0 0 2.11 0 2.07 2.07 0 0 0 .76-.86A2.93 2.93 0 0 0 99 363a2.89 2.89 0 0 0-.24-1.27zm4.85-1.78a2.26 2.26 0 0 1 1.22-.31v1.12h-.27c-1.15 0-1.72.67-1.72 2v3.57h-1v-6.57h1v1.06a2.1 2.1 0 0 1 .77-.87zm8.01 3.5h-4.94a2.19 2.19 0 0 0 .63 1.52 1.94 1.94 0 0 0 1.38.55 1.83 1.83 0 0 0 1.11-.33 1.74 1.74 0 0 0 .63-.89h1.1a2.79 2.79 0 0 1-1 1.55 2.91 2.91 0 0 1-1.85.59 3 3 0 0 1-1.57-.42 2.86 2.86 0 0 1-1.09-1.19 4 4 0 0 1-.4-1.8 3.93 3.93 0 0 1 .39-1.79 2.75 2.75 0 0 1 1.08-1.18 3.08 3.08 0 0 1 1.59-.41 2.89 2.89 0 0 1 1.56.41 2.74 2.74 0 0 1 1 1.12 3.5 3.5 0 0 1 .37 1.61c.05.22.03.43.01.66zm-1.28-2a1.72 1.72 0 0 0-.71-.68 2 2 0 0 0-1-.24 1.87 1.87 0 0 0-1.33.53 2.27 2.27 0 0 0-.63 1.46h3.91a2.15 2.15 0 0 0-.24-1.03zM117 360a2.45 2.45 0 0 1 .9.94v-1.2h1v6.72a3.46 3.46 0 0 1-.36 1.6 2.66 2.66 0 0 1-1 1.1 3.06 3.06 0 0 1-1.56.39 3.26 3.26 0 0 1-2-.61 2.43 2.43 0 0 1-1-1.67h1a1.7 1.7 0 0 0 .7 1 2.18 2.18 0 0 0 1.27.36 1.81 1.81 0 0 0 1.38-.56 2.19 2.19 0 0 0 .54-1.58v-1.38a2.69 2.69 0 0 1-.91 1 2.54 2.54 0 0 1-1.39.38 2.71 2.71 0 0 1-1.5-.43 2.89 2.89 0 0 1-1-1.21 4 4 0 0 1-.39-1.78 3.85 3.85 0 0 1 .39-1.77 2.79 2.79 0 0 1 2.55-1.6 2.59 2.59 0 0 1 1.38.3zm.61 1.72a2 2 0 0 0-.76-.85 1.93 1.93 0 0 0-1-.29 2 2 0 0 0-1.05.28 2.11 2.11 0 0 0-.75.84 2.8 2.8 0 0 0-.29 1.3 2.84 2.84 0 0 0 .29 1.31 2 2 0 0 0 2.85.86 2 2 0 0 0 .76-.86 2.8 2.8 0 0 0 .29-1.3 2.76 2.76 0 0 0-.38-1.28zm3.02-.48a3 3 0 0 1 1.05-1.18 2.78 2.78 0 0 1 1.5-.42 2.6 2.6 0 0 1 1.41.37 2.42 2.42 0 0 1 .89.94v-1.2h1v6.57h-1v-1.22a2.5 2.5 0 0 1-.91.95 2.6 2.6 0 0 1-1.4.38 2.65 2.65 0 0 1-1.49-.43 3 3 0 0 1-1.05-1.21 3.94 3.94 0 0 1-.38-1.78 3.84 3.84 0 0 1 .38-1.77zm4.57.49a2.1 2.1 0 0 0-.76-.85 1.94 1.94 0 0 0-1.06-.29 2 2 0 0 0-1 .28 2.19 2.19 0 0 0-.75.84 2.8 2.8 0 0 0-.28 1.3 2.84 2.84 0 0 0 .28 1.31 2.12 2.12 0 0 0 .75.86 2.06 2.06 0 0 0 2.11 0 2.07 2.07 0 0 0 .76-.86 2.93 2.93 0 0 0 .28-1.3 2.89 2.89 0 0 0-.33-1.29zm4.85-1.79a2.26 2.26 0 0 1 1.22-.31v1.12H131c-1.15 0-1.72.67-1.72 2v3.57h-1v-6.57h1v1.06a2.1 2.1 0 0 1 .77-.87zm10 2.2a2.74 2.74 0 0 1-2 .69h-1.52v3.49h-1V358H138a2.79 2.79 0 0 1 2 .68 2.59 2.59 0 0 1 0 3.5zm-.78-.61a1.49 1.49 0 0 0 .4-1.12c0-1-.55-1.55-1.66-1.55h-1.52v3.07H138a1.72 1.72 0 0 0 1.27-.4zm4.52-1.59a2.29 2.29 0 0 1 1.23-.31v1.12h-.27c-1.15 0-1.73.67-1.73 2v3.57h-1v-6.57h1v1.06a2.1 2.1 0 0 1 .77-.87zm3.53 6.06a2.88 2.88 0 0 1-1.1-1.19 3.85 3.85 0 0 1-.4-1.8 3.8 3.8 0 0 1 .41-1.78 2.93 2.93 0 0 1 1.12-1.19 3.29 3.29 0 0 1 3.18 0 3 3 0 0 1 1.12 1.18 3.69 3.69 0 0 1 .41 1.79 3.74 3.74 0 0 1-.42 1.8 3 3 0 0 1-1.14 1.19 3.13 3.13 0 0 1-1.6.42 3 3 0 0 1-1.58-.42zm2.61-.82a2 2 0 0 0 .79-.82A2.81 2.81 0 0 0 151 363a2.76 2.76 0 0 0-.3-1.34 2 2 0 0 0-.76-.82 2.06 2.06 0 0 0-1-.27 2 2 0 0 0-1 .27 1.94 1.94 0 0 0-.75.82 2.89 2.89 0 0 0-.28 1.34 3.08 3.08 0 0 0 .27 1.36 1.92 1.92 0 0 0 .74.82 2 2 0 0 0 2.05 0zm3.49-3.94a2.79 2.79 0 0 1 2.56-1.6 2.73 2.73 0 0 1 1.34.35 2.57 2.57 0 0 1 1 .93v-3.48h1v8.88h-1v-1.23a2.57 2.57 0 0 1-2.3 1.34 2.71 2.71 0 0 1-1.5-.43 2.89 2.89 0 0 1-1.05-1.21A4 4 0 0 1 153 363a3.85 3.85 0 0 1 .42-1.76zm4.56.49a2 2 0 0 0-.76-.85 1.93 1.93 0 0 0-1.05-.29 2 2 0 0 0-1 .28 2.14 2.14 0 0 0-.76.84 2.93 2.93 0 0 0-.28 1.3 3 3 0 0 0 .28 1.31 2.07 2.07 0 0 0 .76.86 2 2 0 0 0 2.86-.86 2.8 2.8 0 0 0 .29-1.3 2.76 2.76 0 0 0-.32-1.29zm8.54-1.98v6.57h-1v-1a2.05 2.05 0 0 1-.81.79 2.52 2.52 0 0 1-1.16.28 2.69 2.69 0 0 1-1.3-.32 2.24 2.24 0 0 1-.9-1 3.23 3.23 0 0 1-.34-1.55v-3.85h1v3.7a2.19 2.19 0 0 0 .46 1.5 1.59 1.59 0 0 0 1.26.52 1.65 1.65 0 0 0 1.3-.54 2.28 2.28 0 0 0 .47-1.57v-3.61zm1.74 1.49a2.83 2.83 0 0 1 1.06-1.18 2.94 2.94 0 0 1 1.56-.42 2.88 2.88 0 0 1 1.88.59 2.74 2.74 0 0 1 1 1.63h-1.1a1.73 1.73 0 0 0-.61-.95 1.86 1.86 0 0 0-1.14-.35 1.8 1.8 0 0 0-1.42.64 2.76 2.76 0 0 0-.54 1.82 2.8 2.8 0 0 0 .54 1.84 1.78 1.78 0 0 0 1.42.65 1.87 1.87 0 0 0 1.13-.34 1.67 1.67 0 0 0 .62-1h1.1a2.84 2.84 0 0 1-1 1.61 2.8 2.8 0 0 1-1.86.61 2.94 2.94 0 0 1-1.56-.42 2.86 2.86 0 0 1-1.06-1.19 3.92 3.92 0 0 1-.39-1.8 3.86 3.86 0 0 1 .37-1.74zm8.09-.59v3.87a1 1 0 0 0 .19.68.92.92 0 0 0 .67.2h.79v.92h-1a1.79 1.79 0 0 1-1.29-.42 1.9 1.9 0 0 1-.43-1.38v-3.87h-.8v-.9h.8v-1.66h1v1.66H178v.9zm3.98 5.35a3 3 0 0 1-1.11-1.19 3.85 3.85 0 0 1-.4-1.8 3.8 3.8 0 0 1 .41-1.78 3 3 0 0 1 1.12-1.19 3.19 3.19 0 0 1 1.59-.41 3.14 3.14 0 0 1 1.59.41 2.9 2.9 0 0 1 1.12 1.18 3.7 3.7 0 0 1 .42 1.79 3.63 3.63 0 0 1-.43 1.8 3 3 0 0 1-1.14 1.19 3.13 3.13 0 0 1-1.6.42 3 3 0 0 1-1.57-.42zm2.61-.82a2.06 2.06 0 0 0 .78-.82A2.81 2.81 0 0 0 184 363a2.88 2.88 0 0 0-.29-1.34 2.05 2.05 0 0 0-2.83-.82 1.94 1.94 0 0 0-.75.82 2.89 2.89 0 0 0-.28 1.34 2.94 2.94 0 0 0 .28 1.36 1.9 1.9 0 0 0 .73.82 2 2 0 0 0 1 .27 2 2 0 0 0 1.08-.26z" fill="#fff"/><path d="M42.38 165.25v1.64h-2.1v6.78h-1.93v-6.78h-2.1v-1.64zm1.11.75a1.11 1.11 0 0 1 0-1.58 1.08 1.08 0 0 1 .82-.32 1.07 1.07 0 0 1 .82.32 1.14 1.14 0 0 1 0 1.58 1.11 1.11 0 0 1-.82.32 1.12 1.12 0 0 1-.82-.32zm1.78 1v6.7h-1.92V167zm4.11.17a2.2 2.2 0 0 1 1.16-.29 2.49 2.49 0 0 1 1.41.42 2.91 2.91 0 0 1 1 1.2 4.27 4.27 0 0 1 .36 1.81 4.35 4.35 0 0 1-.36 1.82 2.94 2.94 0 0 1-1 1.21 2.49 2.49 0 0 1-1.41.43 2.32 2.32 0 0 1-1.16-.29 2.16 2.16 0 0 1-.78-.75v4.13h-1.93V167h1.93v.95a2.16 2.16 0 0 1 .78-.78zM51 169.1a1.3 1.3 0 0 0-1-.43 1.25 1.25 0 0 0-1 .44 2 2 0 0 0 0 2.42 1.28 1.28 0 0 0 1.95 0 2 2 0 0 0 0-2.43zm4.53 4.25a2.92 2.92 0 0 1-1.16-1.2 3.7 3.7 0 0 1-.43-1.83 3.82 3.82 0 0 1 .43-1.82 3.07 3.07 0 0 1 1.17-1.2 3.37 3.37 0 0 1 1.67-.42 3.31 3.31 0 0 1 1.67.42 2.94 2.94 0 0 1 1.17 1.2 4.07 4.07 0 0 1 0 3.64 3.08 3.08 0 0 1-1.19 1.21 3.34 3.34 0 0 1-1.67.42 3.28 3.28 0 0 1-1.66-.42zm2.6-1.79a1.79 1.79 0 0 0 .39-1.24 1.76 1.76 0 0 0-.38-1.23 1.21 1.21 0 0 0-1.86 0 1.82 1.82 0 0 0-.38 1.24 1.89 1.89 0 0 0 .37 1.24 1.16 1.16 0 0 0 .92.43 1.21 1.21 0 0 0 .94-.44zm5.79-3.06a2.81 2.81 0 0 1 1.08-1.2 3.2 3.2 0 0 1 1.64-.42 3 3 0 0 1 2 .66 3.12 3.12 0 0 1 1 1.86h-2a1 1 0 0 0-1.85-.33 2.12 2.12 0 0 0-.31 1.25 2.15 2.15 0 0 0 .31 1.26 1 1 0 0 0 1.85-.33h2a3.13 3.13 0 0 1-1 1.84 3 3 0 0 1-2 .68 3.2 3.2 0 0 1-1.64-.42 2.81 2.81 0 0 1-1.11-1.2 4.36 4.36 0 0 1 0-3.65zm8 4.85a3 3 0 0 1-1.16-1.2 3.8 3.8 0 0 1-.42-1.83 3.71 3.71 0 0 1 .43-1.82 2.94 2.94 0 0 1 1.17-1.2 3.51 3.51 0 0 1 3.33 0 3 3 0 0 1 1.18 1.2 3.82 3.82 0 0 1 .43 1.82 3.69 3.69 0 0 1-.44 1.82 3.05 3.05 0 0 1-1.18 1.21 3.38 3.38 0 0 1-1.68.42 3.3 3.3 0 0 1-1.66-.42zm2.6-1.79a1.79 1.79 0 0 0 .39-1.24 1.81 1.81 0 0 0-.37-1.23 1.22 1.22 0 0 0-1.87 0 1.82 1.82 0 0 0-.37 1.24 1.89 1.89 0 0 0 .36 1.24 1.17 1.17 0 0 0 .92.43 1.19 1.19 0 0 0 .94-.44zm13.28-3.9a3 3 0 0 1 .69 2.1v3.91h-1.92V170a1.42 1.42 0 0 0-.32-1 1.29 1.29 0 0 0-1.77 0 1.46 1.46 0 0 0-.32 1v3.64h-1.92V170a1.42 1.42 0 0 0-.32-1 1.29 1.29 0 0 0-1.77 0 1.46 1.46 0 0 0-.32 1v3.64H77.9V167h1.93v.84a2 2 0 0 1 .77-.66 2.2 2.2 0 0 1 1.07-.25 2.48 2.48 0 0 1 1.27.33 2.21 2.21 0 0 1 .87.92 2.56 2.56 0 0 1 .89-.9 2.34 2.34 0 0 1 1.23-.35 2.41 2.41 0 0 1 1.87.73zm4.75-.49a2.2 2.2 0 0 1 1.16-.29 2.49 2.49 0 0 1 1.41.42 2.91 2.91 0 0 1 1 1.2 4.27 4.27 0 0 1 .36 1.81 4.35 4.35 0 0 1-.36 1.82 2.94 2.94 0 0 1-1 1.21 2.49 2.49 0 0 1-1.41.43 2.32 2.32 0 0 1-1.16-.29 2.16 2.16 0 0 1-.78-.75v4.13h-1.93V167h1.93v.95a2.16 2.16 0 0 1 .78-.78zm1.57 1.93a1.3 1.3 0 0 0-1-.43 1.25 1.25 0 0 0-1 .44 2 2 0 0 0 0 2.42 1.26 1.26 0 0 0 1 .45 1.3 1.3 0 0 0 1-.45 1.76 1.76 0 0 0 .4-1.22 1.73 1.73 0 0 0-.4-1.21zm6.15-1.88a2.1 2.1 0 0 1 1.13-.32v2.17h-.53a1.55 1.55 0 0 0-1.08.33 1.53 1.53 0 0 0-.36 1.16v3.11H97.5V167h1.93v1.12a2.5 2.5 0 0 1 .84-.9zm3.25 6.13a3 3 0 0 1-1.16-1.2 3.8 3.8 0 0 1-.42-1.83 3.71 3.71 0 0 1 .43-1.82 2.94 2.94 0 0 1 1.17-1.2 3.53 3.53 0 0 1 3.34 0 3.07 3.07 0 0 1 1.17 1.2 4 4 0 0 1 0 3.64 3 3 0 0 1-1.18 1.21 3.53 3.53 0 0 1-3.34 0zm2.61-1.79a1.79 1.79 0 0 0 .39-1.24 1.81 1.81 0 0 0-.38-1.23 1.18 1.18 0 0 0-.93-.44 1.21 1.21 0 0 0-.94.43 2.26 2.26 0 0 0 0 2.48 1.14 1.14 0 0 0 .92.43 1.22 1.22 0 0 0 .94-.43zm6.08-4.39a2.25 2.25 0 0 1 1.16-.29 2.49 2.49 0 0 1 1.41.42 2.91 2.91 0 0 1 1 1.2 4.27 4.27 0 0 1 .37 1.81 4.35 4.35 0 0 1-.37 1.82 2.94 2.94 0 0 1-1 1.21 2.49 2.49 0 0 1-1.41.43 2.29 2.29 0 0 1-1.16-.29 2 2 0 0 1-.78-.75v.94h-1.93v-8.88h1.93v3.13a2 2 0 0 1 .78-.75zm1.57 1.93a1.32 1.32 0 0 0-2 0 2 2 0 0 0 0 2.42 1.26 1.26 0 0 0 1 .45 1.28 1.28 0 0 0 1-.45 1.76 1.76 0 0 0 .4-1.22 1.73 1.73 0 0 0-.4-1.2zm3.36-.6a2.91 2.91 0 0 1 1-1.2 2.49 2.49 0 0 1 1.41-.42 2.26 2.26 0 0 1 1.17.29 2.06 2.06 0 0 1 .77.75V167h1.93v6.7h-1.93v-.95a2.19 2.19 0 0 1-.78.76 2.36 2.36 0 0 1-1.17.29 2.49 2.49 0 0 1-1.4-.43 2.94 2.94 0 0 1-1-1.21 4.35 4.35 0 0 1-.36-1.82 4.27 4.27 0 0 1 .36-1.84zm4 .61a1.31 1.31 0 0 0-2 0 1.73 1.73 0 0 0-.4 1.21 1.76 1.76 0 0 0 .4 1.22 1.24 1.24 0 0 0 1 .45 1.26 1.26 0 0 0 1-.45 2 2 0 0 0 0-2.42zm9.27-1.45a3.11 3.11 0 0 1 .66 2.1v3.91h-1.91V170a1.53 1.53 0 0 0-.33-1 1.23 1.23 0 0 0-1.76 0 1.53 1.53 0 0 0-.33 1v3.64h-1.93V167h1.93v.89a2.14 2.14 0 0 1 .79-.7 2.4 2.4 0 0 1 1.12-.26 2.23 2.23 0 0 1 1.76.73zm5.51 4.27v1.74h-1a2 2 0 0 1-2.22-2.33v-2.66h-.7V167h.77v-1.63h1.93V167h1.26v1.71h-1.26v2.69a.58.58 0 0 0 .13.43.62.62 0 0 0 .45.13zm6.97-1.12h-4.37a1.51 1.51 0 0 0 .38 1 1.12 1.12 0 0 0 .82.33 1 1 0 0 0 1-.65h2.06a3.2 3.2 0 0 1-.57 1.19 2.92 2.92 0 0 1-1 .83 3.11 3.11 0 0 1-1.38.3 3.21 3.21 0 0 1-1.65-.42 2.91 2.91 0 0 1-1.13-1.2 4.36 4.36 0 0 1 0-3.65 2.83 2.83 0 0 1 1.12-1.2 3.23 3.23 0 0 1 1.66-.42 3.1 3.1 0 0 1 1.62.41 2.76 2.76 0 0 1 1.11 1.16 3.66 3.66 0 0 1 .4 1.76q-.04.26-.07.56zm-1.89-1.14a1.08 1.08 0 0 0-.34-.84 1.23 1.23 0 0 0-.84-.31 1.17 1.17 0 0 0-.82.3 1.37 1.37 0 0 0-.41.85z" fill="#0074fd"/><g fill="#60769a"><path d="M577.88 85.94h-94.44a3.82 3.82 0 0 1-3.81-3.81V56a3.82 3.82 0 0 1 3.81-3.81h94.44a3.82 3.82 0 0 1 3.81 3.81v26.13a3.82 3.82 0 0 1-3.81 3.81zm-94.44-32.79a2.81 2.81 0 0 0-2.81 2.85v26.13a2.82 2.82 0 0 0 2.81 2.81h94.44a2.82 2.82 0 0 0 2.81-2.81V56a2.81 2.81 0 0 0-2.81-2.81z" opacity=".11"/><path d="M516.66 68.75a8 8 0 0 0 1.14-1.37 2.6 2.6 0 0 0 .47-1.41 1.59 1.59 0 0 0-.3-1 1.12 1.12 0 0 0-1-.38 1.21 1.21 0 0 0-1 .43 1.8 1.8 0 0 0-.38 1.13h-.83a2.53 2.53 0 0 1 .64-1.73 2.11 2.11 0 0 1 1.55-.61 2.08 2.08 0 0 1 1.54.57 2.13 2.13 0 0 1 .56 1.57 3.11 3.11 0 0 1-.46 1.62 7 7 0 0 1-1.06 1.38c-.39.4-.9.86-1.51 1.38h3.23v.76h-4.52v-.65l1.93-1.69zm4.16-3.97a2 2 0 0 1 1.85-1 1.91 1.91 0 0 1 1.83 1 5.67 5.67 0 0 1 .52 2.68 5.76 5.76 0 0 1-.52 2.72 1.9 1.9 0 0 1-1.83 1 1.93 1.93 0 0 1-1.85-1 5.76 5.76 0 0 1-.52-2.72 5.67 5.67 0 0 1 .52-2.68zm3.25 1.22a2 2 0 0 0-.44-1 1.24 1.24 0 0 0-1-.37 1.29 1.29 0 0 0-1 .37 2 2 0 0 0-.44 1 8.65 8.65 0 0 0-.11 1.47 9 9 0 0 0 .11 1.51 1.89 1.89 0 0 0 .44 1 1.25 1.25 0 0 0 1 .37 1.21 1.21 0 0 0 1-.37 1.89 1.89 0 0 0 .44-1 9 9 0 0 0 .11-1.51 8.65 8.65 0 0 0-.11-1.47zm3.93 2.75a8 8 0 0 0 1.14-1.37 2.59 2.59 0 0 0 .46-1.41 1.65 1.65 0 0 0-.29-1 1.16 1.16 0 0 0-1-.38 1.24 1.24 0 0 0-1 .43 1.86 1.86 0 0 0-.38 1.13h-.83a2.53 2.53 0 0 1 .64-1.73 2.11 2.11 0 0 1 1.55-.61 2.08 2.08 0 0 1 1.54.57 2.13 2.13 0 0 1 .57 1.57 3.13 3.13 0 0 1-.47 1.62 7.37 7.37 0 0 1-1.05 1.38l-1.52 1.38h3.23v.76h-4.49v-.65l1.9-1.69zm3.38-4v-.83h1.76v7.23h-.86v-6.4zm6.94 2.35v.77h-3.75v-.77zm1.99-2.32a2.22 2.22 0 0 1 3.67 0 5.54 5.54 0 0 1 .53 2.68 5.63 5.63 0 0 1-.53 2.72 2.22 2.22 0 0 1-3.67 0 5.76 5.76 0 0 1-.52-2.72 5.67 5.67 0 0 1 .52-2.68zm3.25 1.22a2 2 0 0 0-.44-1 1.28 1.28 0 0 0-1-.37 1.27 1.27 0 0 0-1 .37 2 2 0 0 0-.44 1 8.65 8.65 0 0 0-.11 1.47 9 9 0 0 0 .11 1.51 1.89 1.89 0 0 0 .44 1 1.23 1.23 0 0 0 1 .37 1.24 1.24 0 0 0 1-.37 1.89 1.89 0 0 0 .44-1 9 9 0 0 0 .11-1.51 8.65 8.65 0 0 0-.11-1.47zm3.66 4.09a1.32 1.32 0 0 0 .93.31 1.22 1.22 0 0 0 1.15-.65 4.57 4.57 0 0 0 .35-2.19 1.46 1.46 0 0 1-.66.71 2.06 2.06 0 0 1-1 .25 2.26 2.26 0 0 1-1.12-.27 1.91 1.91 0 0 1-.78-.81 2.66 2.66 0 0 1-.28-1.28 2.49 2.49 0 0 1 .58-1.72 2.09 2.09 0 0 1 1.65-.66 2 2 0 0 1 1.85.91 5.43 5.43 0 0 1 .53 2.71 8.54 8.54 0 0 1-.21 2.08 2.35 2.35 0 0 1-.71 1.25 2.05 2.05 0 0 1-1.38.43 2 2 0 0 1-1.49-.55 2.18 2.18 0 0 1-.61-1.4h.78a1.48 1.48 0 0 0 .42.88zm1.92-2.75a1.55 1.55 0 0 0 .41-1.13 1.77 1.77 0 0 0-.4-1.21 1.4 1.4 0 0 0-1.11-.46 1.32 1.32 0 0 0-1 .44 2 2 0 0 0 0 2.33 1.39 1.39 0 0 0 1.12.44 1.36 1.36 0 0 0 .98-.41zm6.18-.24v.77h-3.75v-.77zm1.24-2.35v-.83h1.76v7.23h-.86v-6.4zm4.99 4a7.61 7.61 0 0 0 1.15-1.37 2.59 2.59 0 0 0 .46-1.41 1.59 1.59 0 0 0-.3-1 1.12 1.12 0 0 0-1-.38 1.23 1.23 0 0 0-1 .43 1.86 1.86 0 0 0-.38 1.13h-.83a2.53 2.53 0 0 1 .64-1.73 2.11 2.11 0 0 1 1.55-.61 2.08 2.08 0 0 1 1.54.57 2.13 2.13 0 0 1 .57 1.57 3.13 3.13 0 0 1-.47 1.62 7 7 0 0 1-1.06 1.38c-.39.4-.89.86-1.51 1.38h3.23v.76h-4.51v-.65l1.92-1.69zM319.62 204.81a1 1 0 0 0 0-1.35.91.91 0 0 0-1.32 0l-3.1 3.19-3.1-3.19a.85.85 0 0 0-.66-.29.9.9 0 0 0-.93 1 .86.86 0 0 0 .28.67l3.76 3.86h0a.88.88 0 0 0 1.31 0zM37.42 43v8.4h-1.93V43zm11.29 2.38a3 3 0 0 1 .69 2.1v3.92h-1.91v-3.64a1.45 1.45 0 0 0-.32-1 1.14 1.14 0 0 0-.89-.36 1.12 1.12 0 0 0-.88.36 1.4 1.4 0 0 0-.32 1v3.64h-1.92v-3.64a1.45 1.45 0 0 0-.32-1 1.14 1.14 0 0 0-.84-.36 1.12 1.12 0 0 0-.88.36 1.4 1.4 0 0 0-.32 1v3.64h-1.98v-6.7h1.93v.84a2.14 2.14 0 0 1 .76-.67 2.37 2.37 0 0 1 1.07-.24 2.52 2.52 0 0 1 1.27.32 2.32 2.32 0 0 1 .88.93 2.48 2.48 0 0 1 .89-.9 2.2 2.2 0 0 1 1.23-.35 2.4 2.4 0 0 1 1.86.75zm4.75-.49a2.31 2.31 0 0 1 1.17-.29A2.48 2.48 0 0 1 56 45a2.77 2.77 0 0 1 1 1.2 4.64 4.64 0 0 1 0 3.63 2.83 2.83 0 0 1-1 1.22 2.48 2.48 0 0 1-1.4.42 2.2 2.2 0 0 1-1.16-.29 2.14 2.14 0 0 1-.78-.74v4.13h-1.9V44.7h1.93v.95a2.08 2.08 0 0 1 .77-.76zM55 46.83a1.31 1.31 0 0 0-1-.44 1.28 1.28 0 0 0-1 .45 2.07 2.07 0 0 0 0 2.42 1.3 1.3 0 0 0 2 0 2 2 0 0 0 0-2.42zm4.61 4.24a3 3 0 0 1-1.16-1.2 3.79 3.79 0 0 1-.45-1.82 3.68 3.68 0 0 1 .43-1.82 3 3 0 0 1 1.2-1.23A3.53 3.53 0 0 1 63 45a3.1 3.1 0 0 1 1.17 1.21 3.68 3.68 0 0 1 .43 1.82 3.82 3.82 0 0 1-.43 1.82A3.05 3.05 0 0 1 63 51.07a3.53 3.53 0 0 1-3.34 0zm2.61-1.79a1.76 1.76 0 0 0 .39-1.23 1.84 1.84 0 0 0-.38-1.24 1.23 1.23 0 0 0-1.87 0 1.85 1.85 0 0 0-.36 1.24 1.81 1.81 0 0 0 .37 1.23 1.15 1.15 0 0 0 .92.44 1.22 1.22 0 0 0 .93-.44zM68.37 45a2 2 0 0 1 1.13-.32v2.12H69a1.56 1.56 0 0 0-1.09.33 1.53 1.53 0 0 0-.36 1.16v3.11H65.6v-6.7h1.92v1.12a2.62 2.62 0 0 1 .85-.82zm5.56 4.66v1.74H73a2 2 0 0 1-2.22-2.33V46.4H70v-1.7h.77v-1.63h1.92v1.63h1.27v1.7h-1.31v2.69a.57.57 0 0 0 .14.43.62.62 0 0 0 .45.14zM75 46.22A2.91 2.91 0 0 1 76 45a2.49 2.49 0 0 1 1.41-.42 2.29 2.29 0 0 1 1.16.29 2 2 0 0 1 .78.76v-.93h1.93v6.7h-1.95v-.95a2.11 2.11 0 0 1-.79.75 2.2 2.2 0 0 1-1.16.29 2.45 2.45 0 0 1-1.4-.42 3 3 0 0 1-1-1.22 4.64 4.64 0 0 1 0-3.63zm4 .62a1.29 1.29 0 0 0-2 0 1.7 1.7 0 0 0-.4 1.21 1.73 1.73 0 0 0 .4 1.21 1.24 1.24 0 0 0 1 .45 1.27 1.27 0 0 0 1-.44 1.78 1.78 0 0 0 .4-1.21 1.76 1.76 0 0 0-.47-1.22zm3.67-.62A2.89 2.89 0 0 1 83.79 45a3.15 3.15 0 0 1 1.64-.42 3 3 0 0 1 2 .66 3.13 3.13 0 0 1 1 1.86h-2a1 1 0 0 0-1-.76 1 1 0 0 0-.84.43 2.15 2.15 0 0 0-.32 1.26 2.12 2.12 0 0 0 .32 1.25 1 1 0 0 0 .84.44 1 1 0 0 0 1-.77h2a3.22 3.22 0 0 1-1 1.85 2.94 2.94 0 0 1-2 .67 3.15 3.15 0 0 1-1.64-.42 2.89 2.89 0 0 1-1.12-1.2 4.36 4.36 0 0 1 0-3.65zm6.94-2.53a1.15 1.15 0 0 1 0-1.59 1.15 1.15 0 0 1 .83-.32 1.12 1.12 0 0 1 .82.32 1.15 1.15 0 0 1 0 1.59 1.12 1.12 0 0 1-.82.31 1.14 1.14 0 0 1-.83-.31zm1.79 1v6.7h-1.93V44.7zm2.6 6.38a3 3 0 0 1-1.16-1.2 3.79 3.79 0 0 1-.42-1.82 3.68 3.68 0 0 1 .43-1.82A3 3 0 0 1 94 45a3.51 3.51 0 0 1 3.33 0 3.05 3.05 0 0 1 1.18 1.21 3.79 3.79 0 0 1 .49 1.84 3.71 3.71 0 0 1-.44 1.82 3 3 0 0 1-1.18 1.2 3.38 3.38 0 0 1-1.68.42 3.3 3.3 0 0 1-1.7-.42zm2.6-1.79a1.76 1.76 0 0 0 .4-1.23 1.84 1.84 0 0 0-.37-1.24 1.2 1.2 0 0 0-.93-.43 1.18 1.18 0 0 0-.94.43 1.8 1.8 0 0 0-.37 1.24 1.86 1.86 0 0 0 .36 1.23 1.18 1.18 0 0 0 .92.44 1.2 1.2 0 0 0 .93-.44zm8.98-3.89a3.1 3.1 0 0 1 .66 2.09v3.92h-1.92v-3.64a1.54 1.54 0 0 0-.32-1 1.13 1.13 0 0 0-.88-.38 1.1 1.1 0 0 0-.88.38 1.49 1.49 0 0 0-.33 1v3.64H100v-6.7h1.93v.89a2 2 0 0 1 .79-.7 2.27 2.27 0 0 1 1.11-.26 2.22 2.22 0 0 1 1.75.76zm7.9 3.15h-4.37a1.48 1.48 0 0 0 .38 1 1.12 1.12 0 0 0 .82.33 1 1 0 0 0 1-.64h2.06a3.16 3.16 0 0 1-.57 1.18 2.82 2.82 0 0 1-1 .83 3.11 3.11 0 0 1-1.38.3 3.21 3.21 0 0 1-1.65-.42 2.91 2.91 0 0 1-1.13-1.2 4.36 4.36 0 0 1 0-3.65 2.83 2.83 0 0 1 1.12-1.2A3.45 3.45 0 0 1 112 45a2.73 2.73 0 0 1 1.11 1.17 3.66 3.66 0 0 1 .4 1.76q0 .3-.03.61zm-1.94-1.14a1.08 1.08 0 0 0-.34-.84 1.19 1.19 0 0 0-.85-.31 1.16 1.16 0 0 0-.81.3 1.35 1.35 0 0 0-.41.85zm4.08 3.79a2.43 2.43 0 0 1-1-.82 2.24 2.24 0 0 1-.42-1.17h1.9a.81.81 0 0 0 .31.56 1 1 0 0 0 .66.22.91.91 0 0 0 .56-.15.47.47 0 0 0 .2-.39.46.46 0 0 0-.28-.43 5.8 5.8 0 0 0-.92-.3 7.06 7.06 0 0 1-1.12-.36 2 2 0 0 1-.78-.58 1.67 1.67 0 0 1-.33-1.09 1.94 1.94 0 0 1 .3-1 2 2 0 0 1 .88-.75 3.27 3.27 0 0 1 1.42-.33 2.66 2.66 0 0 1 1.87.63 2.5 2.5 0 0 1 .78 1.65h-1.78a.85.85 0 0 0-.29-.55 1 1 0 0 0-.64-.2.77.77 0 0 0-.51.14.43.43 0 0 0-.18.37.46.46 0 0 0 .28.44 4.42 4.42 0 0 0 .9.28 10 10 0 0 1 1.14.38 2.1 2.1 0 0 1 .77.6 1.75 1.75 0 0 1 .34 1.11 1.82 1.82 0 0 1-.31 1 2 2 0 0 1-.89.73 3.27 3.27 0 0 1-1.34.26 3.45 3.45 0 0 1-1.52-.25zm11.62.21l-1.64-3.18h-.46v3.18h-1.93V43h3.23a3.41 3.41 0 0 1 1.6.35 2.33 2.33 0 0 1 1 1 2.92 2.92 0 0 1 .32 1.35 2.67 2.67 0 0 1-.44 1.5 2.41 2.41 0 0 1-1.32.94l1.83 3.34zm-2.1-4.64h1.19a1.07 1.07 0 0 0 .8-.27 1.13 1.13 0 0 0 .26-.78 1.09 1.09 0 0 0-.26-.76 1.07 1.07 0 0 0-.8-.27h-1.19zm11.32 1.78h-4.37a1.43 1.43 0 0 0 .38 1 1.12 1.12 0 0 0 .82.33 1 1 0 0 0 1-.64h2.05a2.88 2.88 0 0 1-.57 1.18 2.71 2.71 0 0 1-1 .83 3.11 3.11 0 0 1-1.38.3 3.21 3.21 0 0 1-1.65-.42 2.91 2.91 0 0 1-1.13-1.2 4.36 4.36 0 0 1 0-3.65A2.83 2.83 0 0 1 131.7 45a3.45 3.45 0 0 1 3.3 0 2.85 2.85 0 0 1 1.11 1.17 3.66 3.66 0 0 1 .4 1.76q-.02.3-.05.61zm-1.94-1.14a1.11 1.11 0 0 0-.34-.84 1.2 1.2 0 0 0-.85-.31 1.16 1.16 0 0 0-.81.3 1.35 1.35 0 0 0-.42.85zm2.97-1.18a2.77 2.77 0 0 1 1-1.2 2.49 2.49 0 0 1 1.41-.42 2.29 2.29 0 0 1 1.16.29 2 2 0 0 1 .77.76v-.95h1.93v6.7h-1.93v-.95a2 2 0 0 1-.78.75 2.21 2.21 0 0 1-1.17.29 2.45 2.45 0 0 1-1.39-.42 2.83 2.83 0 0 1-1-1.22 4.64 4.64 0 0 1 0-3.63zm3.94.62a1.24 1.24 0 0 0-1-.45 1.3 1.3 0 0 0-1 .44 1.75 1.75 0 0 0-.4 1.21 1.78 1.78 0 0 0 .4 1.21 1.28 1.28 0 0 0 1 .45 1.23 1.23 0 0 0 1-.44 2 2 0 0 0 0-2.42zm5.66-4.32v8.88h-1.93v-8.88zM37.46 68a2.23 2.23 0 0 1 1.22-.31v1.13h-.27c-1.15 0-1.72.66-1.72 2v3.58h-1v-6.58h1v1.07a2 2 0 0 1 .77-.89zm8.01 3.52h-4.94a2.19 2.19 0 0 0 .63 1.48 1.9 1.9 0 0 0 1.38.55 1.83 1.83 0 0 0 1.11-.33 1.76 1.76 0 0 0 .62-.88h1.11a2.91 2.91 0 0 1-1 1.54 2.87 2.87 0 0 1-1.85.59 3 3 0 0 1-1.53-.39 2.8 2.8 0 0 1-1.09-1.19 3.81 3.81 0 0 1-.4-1.79 3.9 3.9 0 0 1 .39-1.79 2.73 2.73 0 0 1 1.07-1.18 3 3 0 0 1 1.6-.42 3 3 0 0 1 1.55.41 2.83 2.83 0 0 1 1 1.12 3.57 3.57 0 0 1 .36 1.62q.02.3-.01.66zm-1.29-2a1.7 1.7 0 0 0-.7-.68 2.06 2.06 0 0 0-1-.23 1.82 1.82 0 0 0-1.32.52 2.2 2.2 0 0 0-.63 1.47h3.9a2.06 2.06 0 0 0-.25-1.05zm2.68-.21a2.87 2.87 0 0 1 1-1.18 2.75 2.75 0 0 1 1.49-.42 2.69 2.69 0 0 1 1.41.37 2.35 2.35 0 0 1 .89.94v-1.2h1v6.58h-1v-1.23a2.5 2.5 0 0 1-.9 1 2.63 2.63 0 0 1-1.41.37 2.67 2.67 0 0 1-1.49-.43 2.94 2.94 0 0 1-1-1.21 3.92 3.92 0 0 1-.39-1.78 3.85 3.85 0 0 1 .4-1.81zm4.56.49a2.1 2.1 0 0 0-.76-.85 2 2 0 0 0-1-.29 2 2 0 0 0-1.76 1.13 2.79 2.79 0 0 0-.28 1.29 2.86 2.86 0 0 0 .28 1.32 2.1 2.1 0 0 0 .76.85 1.89 1.89 0 0 0 1 .29 1.93 1.93 0 0 0 1-.29 2.1 2.1 0 0 0 .76-.85 2.83 2.83 0 0 0 .28-1.3 2.8 2.8 0 0 0-.28-1.3zm4.08-4.28v8.88h-1v-8.88zm1.58 8.73a.79.79 0 0 1 0-1 .65.65 0 0 1 .5-.22.61.61 0 0 1 .48.22.79.79 0 0 1 0 1 .61.61 0 0 1-.48.22.65.65 0 0 1-.5-.22z"/><use xlink:href="#B"/><path d="M71.11 68a2.28 2.28 0 0 1 .89 1 3.35 3.35 0 0 1 .33 1.55v3.85h-1v-3.72a2.2 2.2 0 0 0-.46-1.51 1.53 1.53 0 0 0-1.23-.52 1.6 1.6 0 0 0-1.27.54 2.33 2.33 0 0 0-.48 1.58v3.63h-1v-3.72a2.25 2.25 0 0 0-.46-1.51 1.55 1.55 0 0 0-1.23-.52 1.62 1.62 0 0 0-1.28.54 2.38 2.38 0 0 0-.47 1.58v3.63h-1v-6.58h1v1a2 2 0 0 1 .82-.79 2.28 2.28 0 0 1 1.13-.28 2.49 2.49 0 0 1 1.37.37 2.27 2.27 0 0 1 .9 1.09 2.13 2.13 0 0 1 .85-1.08 2.46 2.46 0 0 1 1.33-.38 2.62 2.62 0 0 1 1.26.25zm4.83.09a2.6 2.6 0 0 1 1.4-.38 2.78 2.78 0 0 1 1.5.42 2.94 2.94 0 0 1 1 1.18 3.84 3.84 0 0 1 .38 1.77 3.91 3.91 0 0 1-.38 1.78 3 3 0 0 1-1 1.21 2.71 2.71 0 0 1-1.5.43 2.58 2.58 0 0 1-1.34-.37 2.69 2.69 0 0 1-.92-.95v4.34H74v-9.7h1V69a2.55 2.55 0 0 1 .94-.91zm3 1.7a2 2 0 0 0-1.81-1.13 2 2 0 0 0-1 .29 2.09 2.09 0 0 0-.77.86A2.79 2.79 0 0 0 75 71.1a2.83 2.83 0 0 0 .29 1.3 2.12 2.12 0 0 0 .77.85 1.88 1.88 0 0 0 1 .29 1.93 1.93 0 0 0 1.05-.29 2 2 0 0 0 .76-.85 2.86 2.86 0 0 0 .29-1.32 2.79 2.79 0 0 0-.22-1.29zm3.81 4.29a2.91 2.91 0 0 1-1.11-1.19 3.93 3.93 0 0 1-.4-1.79 3.7 3.7 0 0 1 .42-1.79 2.84 2.84 0 0 1 1.12-1.18 3 3 0 0 1 1.59-.42 3.1 3.1 0 0 1 1.59.42 3 3 0 0 1 1.12 1.18 3.78 3.78 0 0 1 .41 1.79 3.7 3.7 0 0 1-.42 1.79 3 3 0 0 1-1.15 1.19 3.11 3.11 0 0 1-1.6.42 3 3 0 0 1-1.57-.42zm2.61-.81a2.09 2.09 0 0 0 .78-.83 2.79 2.79 0 0 0 .3-1.34 2.93 2.93 0 0 0-.29-1.35 2 2 0 0 0-1.77-1.09 2.07 2.07 0 0 0-1 .27 1.94 1.94 0 0 0-.75.82 3.06 3.06 0 0 0-.28 1.35 2.93 2.93 0 0 0 .28 1.35 1.86 1.86 0 0 0 .74.82 2 2 0 0 0 1 .27 2.1 2.1 0 0 0 .99-.27zM90.64 68a2.26 2.26 0 0 1 1.22-.31v1.13h-.27c-1.15 0-1.72.66-1.72 2v3.58h-1v-6.58h1v1.07a2.07 2.07 0 0 1 .77-.89zm3.66.72v3.88a.93.93 0 0 0 .19.67.88.88 0 0 0 .67.2h.75v.93H95a1.79 1.79 0 0 1-1.3-.4 1.9 1.9 0 0 1-.43-1.38v-3.9h-.8v-.9h.8v-1.66h1v1.66h1.61v.9zm2.85.59a3 3 0 0 1 1.06-1.18 2.72 2.72 0 0 1 1.49-.42 2.69 2.69 0 0 1 1.41.37 2.35 2.35 0 0 1 .89.92v-1.2h1v6.6h-1v-1.23a2.46 2.46 0 0 1-.91 1 2.59 2.59 0 0 1-1.4.37 2.67 2.67 0 0 1-1.49-.43 3 3 0 0 1-1-1.21 4 4 0 0 1-.38-1.78 4 4 0 0 1 .33-1.81zm4.57.49a2.1 2.1 0 0 0-.72-.8 2.06 2.06 0 0 0-2.11 0 2.06 2.06 0 0 0-.75.84 2.79 2.79 0 0 0-.28 1.29 2.86 2.86 0 0 0 .28 1.32 2.15 2.15 0 0 0 .75.85 2.06 2.06 0 0 0 2.11 0 2.1 2.1 0 0 0 .76-.85 2.83 2.83 0 0 0 .28-1.3 2.8 2.8 0 0 0-.32-1.35zm3.05-.49a3 3 0 0 1 1.07-1.18 3.21 3.21 0 0 1 3.44.17 2.77 2.77 0 0 1 1 1.63h-1.1a1.73 1.73 0 0 0-.62-1 1.81 1.81 0 0 0-1.13-.34 1.77 1.77 0 0 0-1.42.64 2.75 2.75 0 0 0-.54 1.82 2.77 2.77 0 0 0 .54 1.83 1.78 1.78 0 0 0 1.42.65 1.81 1.81 0 0 0 1.13-.34 1.67 1.67 0 0 0 .62-1h1.1a2.77 2.77 0 0 1-2.85 2.22 2.85 2.85 0 0 1-2.63-1.6 4.11 4.11 0 0 1-.38-1.8 4 4 0 0 1 .35-1.7z"/><use xlink:href="#B" x="52"/><path d="M115.51 74.08a2.88 2.88 0 0 1-1.1-1.19 4.16 4.16 0 0 1 0-3.58 2.9 2.9 0 0 1 1.12-1.18 3.1 3.1 0 0 1 1.59-.42 3 3 0 0 1 1.59.42 2.9 2.9 0 0 1 1.12 1.18 4 4 0 0 1 0 3.58 3 3 0 0 1-1.14 1.19 3.13 3.13 0 0 1-1.6.42 3 3 0 0 1-1.58-.42zm2.61-.81a2 2 0 0 0 .79-.83 3.17 3.17 0 0 0 0-2.69 2 2 0 0 0-.76-.82 2.06 2.06 0 0 0-1-.27 2 2 0 0 0-1 .27 1.94 1.94 0 0 0-.75.82 2.93 2.93 0 0 0-.28 1.35 3.07 3.07 0 0 0 .27 1.35 1.92 1.92 0 0 0 .74.82 2 2 0 0 0 1 .27 2.09 2.09 0 0 0 .99-.27zm8.32-4.84a2.87 2.87 0 0 1 .7 2.09v3.88h-1v-3.72a2.2 2.2 0 0 0-.46-1.51 1.6 1.6 0 0 0-1.27-.52 1.64 1.64 0 0 0-1.29.54 2.29 2.29 0 0 0-.48 1.57v3.64h-1v-6.58h1v.94a2.08 2.08 0 0 1 .83-.78 2.6 2.6 0 0 1 3 .45zm7.99 3.09h-4.94a2.18 2.18 0 0 0 .62 1.51 1.91 1.91 0 0 0 1.39.55 1.83 1.83 0 0 0 1.11-.33 1.76 1.76 0 0 0 .62-.88h1.11a2.91 2.91 0 0 1-1 1.54 2.87 2.87 0 0 1-1.85.59 3 3 0 0 1-1.58-.42 2.84 2.84 0 0 1-1.08-1.19 3.81 3.81 0 0 1-.4-1.79 4 4 0 0 1 .38-1.79 2.81 2.81 0 0 1 1.08-1.18 3 3 0 0 1 1.6-.42 3 3 0 0 1 1.55.41 2.74 2.74 0 0 1 1 1.12 3.45 3.45 0 0 1 .37 1.62q.05.3.02.66zm-1.29-2a1.76 1.76 0 0 0-.7-.68 2.06 2.06 0 0 0-1-.23 1.82 1.82 0 0 0-1.32.52 2.2 2.2 0 0 0-.63 1.47h3.9a2.16 2.16 0 0 0-.25-1.05zm3.59 4.73a2.22 2.22 0 0 1-.89-.72 2 2 0 0 1-.36-1.07h1.06a1.13 1.13 0 0 0 .43.81 1.57 1.57 0 0 0 1 .31 1.37 1.37 0 0 0 .92-.28.83.83 0 0 0 .34-.69.69.69 0 0 0-.36-.64 5 5 0 0 0-1.11-.42 8.51 8.51 0 0 1-1.13-.39 2 2 0 0 1-.74-.59 1.57 1.57 0 0 1-.31-1 1.62 1.62 0 0 1 .28-.93 1.94 1.94 0 0 1 .8-.66 2.67 2.67 0 0 1 1.19-.25 2.45 2.45 0 0 1 1.65.55 2.07 2.07 0 0 1 .68 1.52h-1a1.13 1.13 0 0 0-.39-.83 1.36 1.36 0 0 0-.95-.31 1.39 1.39 0 0 0-.88.25.79.79 0 0 0-.32.66.75.75 0 0 0 .19.53 1.52 1.52 0 0 0 .5.34 7.81 7.81 0 0 0 .83.28 8.16 8.16 0 0 1 1.08.38 1.86 1.86 0 0 1 .72.56 1.54 1.54 0 0 1 .31 1 1.73 1.73 0 0 1-.29 1 1.89 1.89 0 0 1-.79.68 2.76 2.76 0 0 1-1.18.24 3 3 0 0 1-1.28-.33zm12.78-7.04a3.39 3.39 0 0 1 1.42 1.41 4.28 4.28 0 0 1 .5 2.09 5.83 5.83 0 0 1-.29 1.82 3.53 3.53 0 0 1-.85 1.41 1.84 1.84 0 0 1-1.31.54 1.21 1.21 0 0 1-.87-.3 1.26 1.26 0 0 1-.34-.82 2.58 2.58 0 0 1-.89.82 2.28 2.28 0 0 1-1.13.3 1.72 1.72 0 0 1-1.35-.56 2.17 2.17 0 0 1-.49-1.5 4 4 0 0 1 .36-1.68 3.16 3.16 0 0 1 1-1.26 2.36 2.36 0 0 1 1.43-.47 1.43 1.43 0 0 1 1.45.86l.12-.74h.89l-.56 3.47a3.29 3.29 0 0 0 0 .42q0 .72.6.72a1 1 0 0 0 .78-.46 3.21 3.21 0 0 0 .51-1.15 5.82 5.82 0 0 0 .17-1.36 3.22 3.22 0 0 0-.89-2.43 3.41 3.41 0 0 0-2.5-.87 4.41 4.41 0 0 0-2.42.69 4.82 4.82 0 0 0-1.68 1.89 5.74 5.74 0 0 0-.61 2.65 3.2 3.2 0 0 0 .89 2.45 3.49 3.49 0 0 0 2.5.85 4.19 4.19 0 0 0 1.88-.4l.13.74a5.32 5.32 0 0 1-2.21.44 4.51 4.51 0 0 1-2.12-.48 3.4 3.4 0 0 1-1.42-1.39 4.25 4.25 0 0 1-.51-2.11 6.53 6.53 0 0 1 .74-3.09 5.5 5.5 0 0 1 5-3 4.41 4.41 0 0 1 2.07.5zm-2.51 6.1a2.15 2.15 0 0 0 .67-.86 2.84 2.84 0 0 0 .25-1.2 1.51 1.51 0 0 0-.32-1 1.11 1.11 0 0 0-.91-.39 1.42 1.42 0 0 0-1 .34 2.3 2.3 0 0 0-.64.9 3.07 3.07 0 0 0-.22 1.16 1.58 1.58 0 0 0 .3 1 1.11 1.11 0 0 0 .88.37 1.57 1.57 0 0 0 .99-.32zm10.07-5.23a2.45 2.45 0 0 1 .9.94v-1.2h1v6.72a3.46 3.46 0 0 1-.36 1.6 2.69 2.69 0 0 1-1 1.1 3 3 0 0 1-1.56.4 3.27 3.27 0 0 1-2-.62 2.41 2.41 0 0 1-1-1.66h1a1.64 1.64 0 0 0 .7 1 2.14 2.14 0 0 0 1.27.37 1.79 1.79 0 0 0 1.38-.57 2.18 2.18 0 0 0 .54-1.58v-1.42a2.57 2.57 0 0 1-.9 1 2.51 2.51 0 0 1-1.4.38 2.71 2.71 0 0 1-1.5-.43 3 3 0 0 1-1-1.21 3.91 3.91 0 0 1-.38-1.78 3.84 3.84 0 0 1 .38-1.77 3 3 0 0 1 1-1.18 2.78 2.78 0 0 1 1.5-.42 2.68 2.68 0 0 1 1.43.33zm.62 1.72a2.1 2.1 0 0 0-.76-.85 2.06 2.06 0 0 0-2.11 0 2.06 2.06 0 0 0-.75.84 2.79 2.79 0 0 0-.28 1.29 2.86 2.86 0 0 0 .28 1.32 2.15 2.15 0 0 0 .75.85 2.06 2.06 0 0 0 2.11 0 2.1 2.1 0 0 0 .76-.85 3 3 0 0 0 .28-1.3 2.93 2.93 0 0 0-.28-1.3zm11.77-1.8a2.28 2.28 0 0 1 .89 1 3.35 3.35 0 0 1 .33 1.55v3.85h-1v-3.72a2.2 2.2 0 0 0-.46-1.51 1.53 1.53 0 0 0-1.23-.52 1.6 1.6 0 0 0-1.27.54 2.33 2.33 0 0 0-.48 1.58v3.63h-1v-3.72a2.2 2.2 0 0 0-.46-1.51 1.55 1.55 0 0 0-1.23-.52 1.62 1.62 0 0 0-1.28.54 2.38 2.38 0 0 0-.47 1.58v3.63h-1v-6.58h1v1a2 2 0 0 1 .82-.79 2.28 2.28 0 0 1 1.13-.28 2.55 2.55 0 0 1 1.38.37 2.31 2.31 0 0 1 .89 1.09 2.13 2.13 0 0 1 .85-1.08 2.46 2.46 0 0 1 1.33-.38 2.62 2.62 0 0 1 1.26.25zm2.9 1.31a2.87 2.87 0 0 1 1-1.18 2.75 2.75 0 0 1 1.49-.42 2.69 2.69 0 0 1 1.41.37 2.35 2.35 0 0 1 .89.94v-1.2h1v6.58h-1v-1.23a2.5 2.5 0 0 1-.9 1 2.63 2.63 0 0 1-1.41.37 2.67 2.67 0 0 1-1.49-.43 2.94 2.94 0 0 1-1-1.21 3.92 3.92 0 0 1-.39-1.78 3.85 3.85 0 0 1 .4-1.81zm4.56.49a2.1 2.1 0 0 0-.76-.85 2 2 0 0 0-1-.29 2 2 0 0 0-1.81 1.13 2.79 2.79 0 0 0-.28 1.29 2.86 2.86 0 0 0 .28 1.32 2.1 2.1 0 0 0 .76.85 1.89 1.89 0 0 0 1.05.29 1.93 1.93 0 0 0 1-.29 2.1 2.1 0 0 0 .76-.85 2.83 2.83 0 0 0 .28-1.3 2.8 2.8 0 0 0-.28-1.3z"/><use xlink:href="#B" x="120.35"/><path d="M183.78 65.52v8.88h-1v-8.88zm1.58 8.73a.76.76 0 0 1 0-1 .63.63 0 0 1 .49-.22.61.61 0 0 1 .48.22.79.79 0 0 1 0 1 .61.61 0 0 1-.48.22.63.63 0 0 1-.49-.22zm2.53-4.94a2.85 2.85 0 0 1 2.63-1.6 3 3 0 0 1 1.88.59 2.82 2.82 0 0 1 1 1.63h-1.1a1.73 1.73 0 0 0-.62-1 1.81 1.81 0 0 0-1.13-.34 1.75 1.75 0 0 0-1.42.64 2.75 2.75 0 0 0-.54 1.82 2.77 2.77 0 0 0 .54 1.83 1.76 1.76 0 0 0 1.42.65 1.81 1.81 0 0 0 1.13-.34 1.72 1.72 0 0 0 .62-1h1.1a2.93 2.93 0 0 1-5.48.62 4.11 4.11 0 0 1-.38-1.8 4 4 0 0 1 .35-1.7zm7.97 4.77a2.91 2.91 0 0 1-1.11-1.19 3.93 3.93 0 0 1-.4-1.79 3.81 3.81 0 0 1 .41-1.79 2.92 2.92 0 0 1 1.13-1.18 3.2 3.2 0 0 1 3.17 0 2.92 2.92 0 0 1 1.13 1.18 3.78 3.78 0 0 1 .41 1.79 3.7 3.7 0 0 1-.42 1.79 3.06 3.06 0 0 1-1.18 1.19 3.11 3.11 0 0 1-1.6.42 3 3 0 0 1-1.54-.42zm2.61-.81a2.09 2.09 0 0 0 .78-.83 2.79 2.79 0 0 0 .3-1.34 2.93 2.93 0 0 0-.29-1.35 2 2 0 0 0-.77-.82 2.06 2.06 0 0 0-1-.27 2 2 0 0 0-1 .27 1.94 1.94 0 0 0-.75.82 3.39 3.39 0 0 0 0 2.7 1.86 1.86 0 0 0 .74.82 1.93 1.93 0 0 0 1 .27 2.1 2.1 0 0 0 .99-.27zm12.2-5.27a2.28 2.28 0 0 1 .89 1 3.35 3.35 0 0 1 .33 1.55v3.85h-1v-3.72a2.2 2.2 0 0 0-.46-1.51 1.53 1.53 0 0 0-1.23-.52 1.63 1.63 0 0 0-1.28.54 2.38 2.38 0 0 0-.47 1.58v3.63h-1v-3.72a2.25 2.25 0 0 0-.46-1.51 1.55 1.55 0 0 0-1.23-.52 1.62 1.62 0 0 0-1.28.54 2.38 2.38 0 0 0-.47 1.58v3.63h-1v-6.58h1v1a2 2 0 0 1 .82-.79 2.28 2.28 0 0 1 1.13-.28 2.51 2.51 0 0 1 1.37.37 2.2 2.2 0 0 1 .89 1.09 2.2 2.2 0 0 1 .86-1.08 2.46 2.46 0 0 1 1.33-.38 2.62 2.62 0 0 1 1.26.25zM500 64.39h-.43V64a.42.42 0 0 0-.44-.44.41.41 0 0 0-.43.44v.43h-3.46V64a.42.42 0 0 0-.44-.44.41.41 0 0 0-.43.44v.43h-.43a1.27 1.27 0 0 0-1.3 1.3v.43h8.66v-.43a1.28 1.28 0 0 0-1.3-1.34zm-7.36 6.49a1.27 1.27 0 0 0 1.3 1.3H500a1.28 1.28 0 0 0 1.3-1.3V67h-8.66zm6.49-3a.41.41 0 0 1 .44.43.42.42 0 0 1-.44.44.41.41 0 0 1-.43-.44.4.4 0 0 1 .41-.46zm0 1.73a.42.42 0 0 1 .44.44.41.41 0 0 1-.44.43.4.4 0 0 1-.43-.43.41.41 0 0 1 .41-.47zM497 67.85a.4.4 0 0 1 .43.43.43.43 0 1 1-.86 0 .4.4 0 0 1 .43-.43zm0 1.73a.41.41 0 0 1 .43.44.43.43 0 1 1-.86 0 .41.41 0 0 1 .43-.44zm-2.17-1.73a.41.41 0 0 1 .44.43.42.42 0 0 1-.44.44.41.41 0 0 1-.43-.44.4.4 0 0 1 .38-.43zm0 1.73a.42.42 0 0 1 .44.44.41.41 0 0 1-.44.43.4.4 0 0 1-.43-.43.41.41 0 0 1 .38-.44z"/><path d="M333 223H39.29a3.82 3.82 0 0 1-3.81-3.81V193a3.82 3.82 0 0 1 3.81-3.81H333a3.82 3.82 0 0 1 3.81 3.81v26.17A3.82 3.82 0 0 1 333 223zM39.29 190.17a2.82 2.82 0 0 0-2.81 2.83v26.17a2.81 2.81 0 0 0 2.81 2.83H333a2.81 2.81 0 0 0 2.81-2.81V193a2.82 2.82 0 0 0-2.81-2.81zM333 300.77H39.29a3.82 3.82 0 0 1-3.81-3.77v-26.21a3.82 3.82 0 0 1 3.81-3.79H333a3.82 3.82 0 0 1 3.81 3.81V297a3.82 3.82 0 0 1-3.81 3.77zM39.29 268a2.81 2.81 0 0 0-2.81 2.81V297a2.81 2.81 0 0 0 2.81 2.81H333a2.81 2.81 0 0 0 2.81-2.81v-26.21A2.81 2.81 0 0 0 333 268z" opacity=".11"/><path d="M55.35 201.29v.89h-3.42V205h2.77v.89h-2.77v3.77h-1v-8.37zm1.24 3.29a2.83 2.83 0 0 1 1-1.19 2.77 2.77 0 0 1 1.49-.42 2.56 2.56 0 0 1 1.41.38 2.43 2.43 0 0 1 .9.93v-1.2h1v6.58h-1v-1.23a2.53 2.53 0 0 1-.91 1 2.76 2.76 0 0 1-2.89-.06 2.83 2.83 0 0 1-1-1.21 3.9 3.9 0 0 1-.39-1.77 3.79 3.79 0 0 1 .39-1.81zm4.56.48a2 2 0 0 0-.76-.84 1.94 1.94 0 0 0-1-.3 2 2 0 0 0-1.81 1.13 2.93 2.93 0 0 0-.28 1.3 3 3 0 0 0 .28 1.31 2 2 0 0 0 .76.85 1.89 1.89 0 0 0 1.05.3 1.94 1.94 0 0 0 1-.3 2 2 0 0 0 .76-.85 2.83 2.83 0 0 0 .29-1.3 2.8 2.8 0 0 0-.29-1.3zm3.06-.48a2.86 2.86 0 0 1 1.06-1.19 3.21 3.21 0 0 1 3.44.17 2.84 2.84 0 0 1 1 1.63h-1.13a1.66 1.66 0 0 0-.61-.94 2 2 0 0 0-2.56.29 2.75 2.75 0 0 0-.54 1.82 2.77 2.77 0 0 0 .54 1.83 1.77 1.77 0 0 0 1.43.65 1.84 1.84 0 0 0 1.12-.33 1.74 1.74 0 0 0 .62-1h1.11a3 3 0 0 1-1 1.61 2.89 2.89 0 0 1-1.86.61 3 3 0 0 1-1.57-.42 2.86 2.86 0 0 1-1.06-1.19 3.92 3.92 0 0 1-.39-1.8 3.83 3.83 0 0 1 .4-1.74zm8.09-.58v3.88a1 1 0 0 0 .2.68.9.9 0 0 0 .66.19h.76v.93H73a1.75 1.75 0 0 1-1.28-.42 1.86 1.86 0 0 1-.43-1.38V204h-.8v-.9h.8v-1.65h1v1.65h1.62v.9zm8.34-.92v6.58h-1v-1a2.12 2.12 0 0 1-.82.78 2.36 2.36 0 0 1-1.15.28 2.66 2.66 0 0 1-1.3-.31 2.29 2.29 0 0 1-.91-1 3.32 3.32 0 0 1-.33-1.55v-3.85h1v3.71a2.15 2.15 0 0 0 .47 1.49 1.6 1.6 0 0 0 1.26.53 1.65 1.65 0 0 0 1.3-.54 2.37 2.37 0 0 0 .47-1.58v-3.61z"/><use xlink:href="#C"/><path d="M86.58 204.58a2.83 2.83 0 0 1 1-1.19 2.78 2.78 0 0 1 1.5-.42 2.55 2.55 0 0 1 1.4.38 2.43 2.43 0 0 1 .9.93v-1.2h1v6.58h-1v-1.23a2.53 2.53 0 0 1-.91 1 2.61 2.61 0 0 1-1.41.38 2.65 2.65 0 0 1-1.48-.44 2.83 2.83 0 0 1-1-1.21 3.9 3.9 0 0 1-.39-1.77 3.79 3.79 0 0 1 .39-1.81zm4.56.48a2 2 0 0 0-1.81-1.14 2 2 0 0 0-1.81 1.13 2.93 2.93 0 0 0-.28 1.3 3 3 0 0 0 .28 1.31 2 2 0 0 0 3.62 0 2.83 2.83 0 0 0 .29-1.3 2.8 2.8 0 0 0-.29-1.3zm3.06-.48a3.06 3.06 0 0 1 4.5-1 2.78 2.78 0 0 1 1 1.63h-1.13a1.66 1.66 0 0 0-.61-.94 1.94 1.94 0 0 0-2.55.29 2.75 2.75 0 0 0-.55 1.82 2.78 2.78 0 0 0 .55 1.83 1.73 1.73 0 0 0 1.42.65 1.84 1.84 0 0 0 1.12-.33 1.74 1.74 0 0 0 .62-1h1.11a3 3 0 0 1-1 1.61 3 3 0 0 1-4.49-1 3.91 3.91 0 0 1-.38-1.8 3.83 3.83 0 0 1 .39-1.76z"/><use xlink:href="#D"/><path d="M104.94 209.35a2.93 2.93 0 0 1-1.11-1.2 3.9 3.9 0 0 1-.4-1.79 3.66 3.66 0 0 1 .42-1.78 2.81 2.81 0 0 1 1.12-1.19 3 3 0 0 1 1.59-.42 3.1 3.1 0 0 1 1.59.42 3 3 0 0 1 1.12 1.18 3.78 3.78 0 0 1 .41 1.79 3.67 3.67 0 0 1-.42 1.79 3 3 0 0 1-1.15 1.2 3.11 3.11 0 0 1-1.6.42 3 3 0 0 1-1.57-.42zm2.61-.82a2 2 0 0 0 .78-.83 2.76 2.76 0 0 0 .3-1.34 2.93 2.93 0 0 0-.29-1.35 2 2 0 0 0-1.79-1.09 2.07 2.07 0 0 0-1 .27 2 2 0 0 0-.75.82 3.06 3.06 0 0 0-.28 1.35 2.9 2.9 0 0 0 .28 1.35 1.88 1.88 0 0 0 .74.83 2 2 0 0 0 1 .27 2.1 2.1 0 0 0 1.01-.28zm.11-7.39l-2.4 1.37v-.82l2.4-1.5zm8.21 2.55a2.87 2.87 0 0 1 .7 2.09v3.88h-1v-3.72a2.2 2.2 0 0 0-.46-1.51 1.59 1.59 0 0 0-1.26-.52 1.64 1.64 0 0 0-1.29.54 2.29 2.29 0 0 0-.48 1.57v3.64h-1v-6.58h1v.92a2 2 0 0 1 .83-.78A2.36 2.36 0 0 1 114 203a2.42 2.42 0 0 1 1.87.69zm6.42-1.51V205h2.86v.9h-2.86v2.88h3.2v.9h-4.23v-8.38h4.23v.9zm5.78-1.4v8.88h-1v-8.88zm7.35 6h-4.94a2.21 2.21 0 0 0 .63 1.52 1.93 1.93 0 0 0 1.38.54 1.83 1.83 0 0 0 1.11-.33 1.77 1.77 0 0 0 .63-.88h1.1a2.81 2.81 0 0 1-2.84 2.14 3 3 0 0 1-1.57-.42 2.82 2.82 0 0 1-1.09-1.2 3.78 3.78 0 0 1-.4-1.79 3.9 3.9 0 0 1 .39-1.79 2.73 2.73 0 0 1 1.07-1.18 3.06 3.06 0 0 1 1.6-.42 3 3 0 0 1 1.56.41 2.81 2.81 0 0 1 1 1.12 3.57 3.57 0 0 1 .36 1.62q.04.32.01.66zm-1.28-2a1.81 1.81 0 0 0-.71-.69 2.16 2.16 0 0 0-1-.23 1.8 1.8 0 0 0-1.32.53 2.22 2.22 0 0 0-.63 1.46h3.9a2.12 2.12 0 0 0-.24-1.03zm2.67-.2a2.86 2.86 0 0 1 1.06-1.19 3.21 3.21 0 0 1 3.44.17 2.84 2.84 0 0 1 1 1.63h-1.11a1.66 1.66 0 0 0-.61-.94 2 2 0 0 0-2.56.29 2.75 2.75 0 0 0-.54 1.82 2.77 2.77 0 0 0 .54 1.83 1.75 1.75 0 0 0 1.42.65 1.85 1.85 0 0 0 1.13-.33 1.74 1.74 0 0 0 .62-1h1.11a2.91 2.91 0 0 1-1 1.61 2.85 2.85 0 0 1-1.86.61 2.94 2.94 0 0 1-1.56-.42 2.86 2.86 0 0 1-1.06-1.19 3.92 3.92 0 0 1-.39-1.8 3.83 3.83 0 0 1 .37-1.74zm8.09-.58v3.88a1 1 0 0 0 .19.68.93.93 0 0 0 .67.19h.76v.93h-.93a1.75 1.75 0 0 1-1.28-.42 1.86 1.86 0 0 1-.43-1.38V204h-.8v-.9h.8v-1.65h1v1.65h1.62v.9zm4.65-.73a2.39 2.39 0 0 1 1.23-.31v1.13h-.27c-1.15 0-1.73.66-1.73 2v3.58h-1v-6.58h1v1.07a2.07 2.07 0 0 1 .77-.89zm3.53 6.08a2.85 2.85 0 0 1-1.1-1.2 3.78 3.78 0 0 1-.4-1.79 3.65 3.65 0 0 1 .41-1.78 2.87 2.87 0 0 1 1.12-1.19 3.22 3.22 0 0 1 3.18 0 2.9 2.9 0 0 1 1.12 1.18 4.07 4.07 0 0 1 0 3.58 3 3 0 0 1-1.14 1.2 3.17 3.17 0 0 1-1.61.42 3 3 0 0 1-1.58-.42zm2.61-.82a2 2 0 0 0 .79-.83 2.76 2.76 0 0 0 .29-1.34 2.81 2.81 0 0 0-.29-1.35 2 2 0 0 0-.76-.82 2.06 2.06 0 0 0-1-.27 1.92 1.92 0 0 0-1.78 1.09 2.93 2.93 0 0 0-.28 1.35 3 3 0 0 0 .27 1.35 2 2 0 0 0 1.74 1.1 2.1 2.1 0 0 0 1.02-.28zm.12-7.39l-2.41 1.37v-.82l2.41-1.5zm8.19 2.55a2.87 2.87 0 0 1 .7 2.09v3.88h-1v-3.72a2.2 2.2 0 0 0-.47-1.51 1.57 1.57 0 0 0-1.26-.52 1.64 1.64 0 0 0-1.29.54 2.29 2.29 0 0 0-.48 1.57v3.64h-1v-6.58h1v.92a2 2 0 0 1 .83-.78 2.6 2.6 0 0 1 3 .45z"/><use xlink:href="#D" x="65.35"/><path d="M169.17 204.58a2.86 2.86 0 0 1 1.06-1.19 3.21 3.21 0 0 1 3.44.17 2.84 2.84 0 0 1 1 1.63h-1.11a1.66 1.66 0 0 0-.61-.94 1.8 1.8 0 0 0-1.14-.35 1.77 1.77 0 0 0-1.42.64 2.75 2.75 0 0 0-.54 1.82 2.77 2.77 0 0 0 .54 1.83 1.75 1.75 0 0 0 1.42.65 1.87 1.87 0 0 0 1.13-.33 1.74 1.74 0 0 0 .62-1h1.11a2.91 2.91 0 0 1-1 1.61 2.85 2.85 0 0 1-1.86.61 2.94 2.94 0 0 1-1.56-.42 2.86 2.86 0 0 1-1.06-1.19 3.92 3.92 0 0 1-.39-1.8 3.83 3.83 0 0 1 .37-1.74zm6.83 0a3 3 0 0 1 1.05-1.19 2.78 2.78 0 0 1 1.5-.42 2.61 2.61 0 0 1 1.41.38 2.47 2.47 0 0 1 .89.93v-1.2h1v6.58h-1v-1.23a2.53 2.53 0 0 1-.91 1 2.6 2.6 0 0 1-1.4.38 2.66 2.66 0 0 1-1.49-.44 2.9 2.9 0 0 1-1.05-1.21 3.9 3.9 0 0 1-.38-1.77 3.79 3.79 0 0 1 .38-1.81zm4.57.48a2 2 0 0 0-.77-.84 1.94 1.94 0 0 0-1.05-.3 2 2 0 0 0-1.75 1.13 2.8 2.8 0 0 0-.29 1.3 2.84 2.84 0 0 0 .29 1.31 2 2 0 0 0 2.85.85 2.06 2.06 0 0 0 .77-.85 3 3 0 0 0 .28-1.3 2.93 2.93 0 0 0-.32-1.3zm217.13-27.13a2.32 2.32 0 0 1-1-.81 2.16 2.16 0 0 1-.37-1.21h1.1a1.58 1.58 0 0 0 .46 1 1.54 1.54 0 0 0 1.16.4 1.64 1.64 0 0 0 1.16-.39 1.3 1.3 0 0 0 .42-1 1.16 1.16 0 0 0-.25-.78 1.49 1.49 0 0 0-.62-.45 8.11 8.11 0 0 0-1-.34 9.78 9.78 0 0 1-1.25-.43 2.07 2.07 0 0 1-.8-.68 2.09 2.09 0 0 1-.33-1.24 2.28 2.28 0 0 1 .33-1.22 2.08 2.08 0 0 1 .92-.81 3 3 0 0 1 1.35-.29 2.74 2.74 0 0 1 1.81.59 2.21 2.21 0 0 1 .8 1.56h-1.09a1.33 1.33 0 0 0-.5-.83 1.65 1.65 0 0 0-1.11-.36 1.53 1.53 0 0 0-1.05.35 1.25 1.25 0 0 0-.4 1 1.1 1.1 0 0 0 .24.74 1.47 1.47 0 0 0 .6.44 8.66 8.66 0 0 0 1 .34 10.42 10.42 0 0 1 1.25.46 2.08 2.08 0 0 1 .81.68 2 2 0 0 1 .34 1.25 2.21 2.21 0 0 1-.31 1.15 2.24 2.24 0 0 1-.9.88 2.88 2.88 0 0 1-1.41.34 3.12 3.12 0 0 1-1.36-.34zm11.12-2.67h-4.94a2.19 2.19 0 0 0 .63 1.52 1.94 1.94 0 0 0 1.38.55A1.83 1.83 0 0 0 407 177a1.74 1.74 0 0 0 .63-.89h1.1a2.79 2.79 0 0 1-1 1.55 2.91 2.91 0 0 1-1.85.59 3 3 0 0 1-1.57-.42 2.86 2.86 0 0 1-1.09-1.19 4 4 0 0 1-.4-1.8 3.93 3.93 0 0 1 .39-1.79 2.75 2.75 0 0 1 1.08-1.18 3.08 3.08 0 0 1 1.59-.41 2.89 2.89 0 0 1 1.56.41 2.74 2.74 0 0 1 1 1.12 3.53 3.53 0 0 1 .37 1.61c.05.21.03.4.01.66zm-1.28-2a1.72 1.72 0 0 0-.71-.68 2 2 0 0 0-1-.24 1.87 1.87 0 0 0-1.33.53 2.21 2.21 0 0 0-.62 1.46h3.9a2.15 2.15 0 0 0-.24-1.03zm4.46-1.5a2.23 2.23 0 0 1 1.22-.31v1.12H413c-1.15 0-1.73.67-1.73 2v3.57h-1v-6.57h1v1.07a2 2 0 0 1 .73-.88zm2.45-1.48a.76.76 0 0 1 0-1.05.63.63 0 0 1 .49-.22.61.61 0 0 1 .48.22.79.79 0 0 1 0 1.05.61.61 0 0 1-.48.22.63.63 0 0 1-.49-.22zm1 1.29v6.57h-1v-6.57zm7.34 3.69h-4.94a2.19 2.19 0 0 0 .63 1.52 1.94 1.94 0 0 0 1.38.55A1.83 1.83 0 0 0 421 177a1.74 1.74 0 0 0 .63-.89h1.1a2.78 2.78 0 0 1-2.84 2.14 3 3 0 0 1-1.57-.42 2.86 2.86 0 0 1-1.09-1.19 4 4 0 0 1-.4-1.8 3.93 3.93 0 0 1 .39-1.79 2.79 2.79 0 0 1 1.07-1.18 3.15 3.15 0 0 1 1.6-.41 2.91 2.91 0 0 1 1.56.41 2.74 2.74 0 0 1 1 1.12 3.53 3.53 0 0 1 .36 1.61q.01.32-.02.66zm-1.28-2a1.72 1.72 0 0 0-.71-.68 2 2 0 0 0-1-.24 1.84 1.84 0 0 0-1.32.53 2.22 2.22 0 0 0-.63 1.46h3.9a2.14 2.14 0 0 0-.24-1.03zm105.31 31.26a.94.94 0 0 0 0-1.35.88.88 0 0 0-1.31 0l-3.1 3.18-3.1-3.18a.83.83 0 0 0-.66-.29.9.9 0 0 0-.94 1 .88.88 0 0 0 .28.68l3.76 3.86h0a.91.91 0 0 0 1.32 0z"/><path d="M531.91 222.66H395.47a3.8 3.8 0 0 1-3.81-3.81v-26.16a3.81 3.81 0 0 1 3.81-3.81h136.44a3.82 3.82 0 0 1 3.81 3.81v26.16a3.81 3.81 0 0 1-3.81 3.81zm-136.44-32.78a2.81 2.81 0 0 0-2.81 2.81v26.16a2.81 2.81 0 0 0 2.81 2.81h136.44a2.81 2.81 0 0 0 2.81-2.81v-26.16a2.81 2.81 0 0 0-2.81-2.81z" opacity=".11"/><path d="M411.34,209.36l-3.24-3.81v3.81h-1V201h1v3.87l3.25-3.87h1.3l-3.57,4.19,3.6,4.17Z"/><use xlink:href="#E"/><use xlink:href="#E" x="7.08"/><path d="M428.6 201.14a2.78 2.78 0 0 1 1.87-.62 2.93 2.93 0 0 1 1.33.29 2 2 0 0 1 .84.8 2.3 2.3 0 0 1 .29 1.14 2.06 2.06 0 0 1-.4 1.28 1.81 1.81 0 0 1-1 .7v.06a2.11 2.11 0 0 1 1.16.76 2.38 2.38 0 0 1 .43 1.47 2.49 2.49 0 0 1-.3 1.23 2 2 0 0 1-.88.86 2.94 2.94 0 0 1-1.41.31 2.91 2.91 0 0 1-2-.66 2.62 2.62 0 0 1-.85-1.89h1a1.79 1.79 0 0 0 .55 1.17 1.73 1.73 0 0 0 1.26.46 1.48 1.48 0 0 0 1.62-1.57 1.47 1.47 0 0 0-.57-1.3 3 3 0 0 0-1.7-.4h-.26v-.91h.27a3 3 0 0 0 1.57-.36 1.25 1.25 0 0 0 .53-1.1 1.35 1.35 0 0 0-.39-1 1.5 1.5 0 0 0-1.11-.39 1.62 1.62 0 0 0-1.13.39 1.55 1.55 0 0 0-.51 1h-1a2.4 2.4 0 0 1 .79-1.72zm148.77-31.3v8.3h-1V172l-2.6 6.19H573l-2.6-6.2v6.2h-1v-8.3h1.11l2.88 6.86 2.89-6.86zm2.86 7.99a2.88 2.88 0 0 1-1.1-1.19 3.85 3.85 0 0 1-.4-1.8 3.68 3.68 0 0 1 .41-1.78 2.93 2.93 0 0 1 1.12-1.19 3.29 3.29 0 0 1 3.18 0 3 3 0 0 1 1.12 1.18 3.69 3.69 0 0 1 .41 1.79 3.74 3.74 0 0 1-.42 1.8 3 3 0 0 1-1.14 1.19 3.17 3.17 0 0 1-1.61.42 3 3 0 0 1-1.57-.42zm2.61-.82a2.08 2.08 0 0 0 .79-.82 2.93 2.93 0 0 0 .29-1.35 2.76 2.76 0 0 0-.29-1.34 1.92 1.92 0 0 0-.77-.82 2.08 2.08 0 0 0-2.05 0 1.82 1.82 0 0 0-.75.82 2.88 2.88 0 0 0-.29 1.34 3.08 3.08 0 0 0 .28 1.36 1.92 1.92 0 0 0 .74.82 2 2 0 0 0 2.05 0zm8.32-4.84a2.9 2.9 0 0 1 .7 2.1v3.87h-1v-3.72a2.17 2.17 0 0 0-.47-1.5 1.57 1.57 0 0 0-1.26-.53 1.64 1.64 0 0 0-1.29.54 2.31 2.31 0 0 0-.48 1.58v3.63h-1v-6.57h1v.93a2.15 2.15 0 0 1 .83-.78 2.48 2.48 0 0 1 1.16-.27 2.41 2.41 0 0 1 1.81.72zm7.99 3.09h-4.94a2.15 2.15 0 0 0 .62 1.52 1.94 1.94 0 0 0 1.38.55 1.79 1.79 0 0 0 1.11-.33 1.74 1.74 0 0 0 .63-.89h1.11a2.8 2.8 0 0 1-2.85 2.14 2.89 2.89 0 0 1-2.66-1.61 4 4 0 0 1-.39-1.8 4.06 4.06 0 0 1 .38-1.79 2.87 2.87 0 0 1 1.08-1.18 3.08 3.08 0 0 1 1.59-.41 2.89 2.89 0 0 1 1.56.41 2.68 2.68 0 0 1 1 1.12 3.41 3.41 0 0 1 .37 1.61q.04.32.01.66zm-1.29-2a1.66 1.66 0 0 0-.71-.68 2 2 0 0 0-1-.24 1.87 1.87 0 0 0-1.33.53 2.21 2.21 0 0 0-.62 1.46h3.9a2.15 2.15 0 0 0-.24-1.03zm2.67-.2a2.9 2.9 0 0 1 1.06-1.18 2.73 2.73 0 0 1 1.5-.42 2.71 2.71 0 0 1 1.34.35 2.5 2.5 0 0 1 1 .93v-3.48h1v8.88h-1v-1.23a2.43 2.43 0 0 1-.9 1 2.6 2.6 0 0 1-1.4.38 2.65 2.65 0 0 1-1.49-.43 3 3 0 0 1-1.06-1.21 4.08 4.08 0 0 1-.38-1.78 4 4 0 0 1 .33-1.81zm4.57.49a2.1 2.1 0 0 0-.76-.85 2.1 2.1 0 0 0-2.11 0 2.19 2.19 0 0 0-.75.84 2.8 2.8 0 0 0-.28 1.3 2.84 2.84 0 0 0 .28 1.31 2.12 2.12 0 0 0 .75.86 2.06 2.06 0 0 0 2.11 0 2.07 2.07 0 0 0 .76-.86 2.8 2.8 0 0 0 .28-1.3 2.76 2.76 0 0 0-.28-1.3zm3.05-.49a2.9 2.9 0 0 1 1.06-1.18 2.72 2.72 0 0 1 1.49-.42 2.6 2.6 0 0 1 1.41.37 2.35 2.35 0 0 1 .89.94v-1.2h1v6.57h-1v-1.22a2.43 2.43 0 0 1-.91 1 2.6 2.6 0 0 1-1.4.38 2.67 2.67 0 0 1-1.49-.43 3 3 0 0 1-1.05-1.21 4.08 4.08 0 0 1-.38-1.78 4 4 0 0 1 .38-1.82zm4.57.49a2.1 2.1 0 0 0-.76-.85 2 2 0 0 0-2.06-.01 2.14 2.14 0 0 0-.76.84 2.8 2.8 0 0 0-.28 1.3 2.84 2.84 0 0 0 .28 1.31 2.07 2.07 0 0 0 .76.86 2 2 0 0 0 1 .29 2 2 0 0 0 1.1-.29 2.07 2.07 0 0 0 .76-.86 2.8 2.8 0 0 0 .28-1.3 2.76 2.76 0 0 0-.32-1.29zm86.91 30.97a1 1 0 0 0 0-1.35.89.89 0 0 0-1.32 0l-3.1 3.18-3.1-3.18a.83.83 0 0 0-.66-.29.9.9 0 0 0-.94 1 .92.92 0 0 0 .28.68l3.76 3.86h0a.91.91 0 0 0 1.32 0z"/><path d="M704.71 222.66H568.27a3.81 3.81 0 0 1-3.81-3.81v-26.16a3.82 3.82 0 0 1 3.81-3.81h136.44a3.82 3.82 0 0 1 3.81 3.81v26.16a3.81 3.81 0 0 1-3.81 3.81zm-136.44-32.78a2.81 2.81 0 0 0-2.81 2.81v26.16a2.81 2.81 0 0 0 2.81 2.81h136.44a2.81 2.81 0 0 0 2.81-2.81v-26.16a2.81 2.81 0 0 0-2.81-2.81z" opacity=".11"/><path d="M581 209.15a2.42 2.42 0 0 1-1-.81 2.24 2.24 0 0 1-.36-1.21h1.1a1.47 1.47 0 0 0 1.62 1.39 1.66 1.66 0 0 0 1.16-.39 1.3 1.3 0 0 0 .42-1 1.16 1.16 0 0 0-.25-.78 1.6 1.6 0 0 0-.62-.46c-.25-.1-.58-.21-1-.33a9.78 9.78 0 0 1-1.25-.43 2.07 2.07 0 0 1-.8-.68 2.09 2.09 0 0 1-.33-1.24A2.36 2.36 0 0 1 580 202a2.2 2.2 0 0 1 .92-.81 3.12 3.12 0 0 1 1.36-.29 2.74 2.74 0 0 1 1.81.59 2.21 2.21 0 0 1 .8 1.56h-1.13a1.38 1.38 0 0 0-.47-.85 1.65 1.65 0 0 0-1.11-.36 1.52 1.52 0 0 0-1.05.35 1.25 1.25 0 0 0-.4 1 1.12 1.12 0 0 0 .24.74 1.47 1.47 0 0 0 .6.44 8.39 8.39 0 0 0 1 .34 12.18 12.18 0 0 1 1.26.45 2.2 2.2 0 0 1 .81.69 2.11 2.11 0 0 1 .34 1.25 2.33 2.33 0 0 1-.31 1.15 2.24 2.24 0 0 1-.9.88 2.88 2.88 0 0 1-1.41.34 3.12 3.12 0 0 1-1.36-.32zm6.62-.1a3 3 0 0 1-1.11-1.19 4 4 0 0 1-.4-1.8 3.8 3.8 0 0 1 .41-1.78 3 3 0 0 1 1.13-1.19 3.14 3.14 0 0 1 1.59-.41 3.19 3.19 0 0 1 1.59.41 3 3 0 0 1 1.12 1.18 3.81 3.81 0 0 1 .41 1.79 3.74 3.74 0 0 1-.42 1.8 3.07 3.07 0 0 1-2.75 1.61 3 3 0 0 1-1.57-.42zm2.61-.82a2.06 2.06 0 0 0 .78-.82 2.81 2.81 0 0 0 .3-1.35 2.88 2.88 0 0 0-.29-1.34 2 2 0 0 0-1.77-1.09 2.07 2.07 0 0 0-1 .27 1.94 1.94 0 0 0-.75.82 3 3 0 0 0-.28 1.34 2.94 2.94 0 0 0 .28 1.36 1.86 1.86 0 0 0 .74.82 1.93 1.93 0 0 0 1 .27 2 2 0 0 0 .99-.28zm4.51-7.75v8.88h-1v-8.88zm7.35 6h-4.94a2.19 2.19 0 0 0 .63 1.52 1.94 1.94 0 0 0 1.38.55 1.83 1.83 0 0 0 1.11-.33 1.78 1.78 0 0 0 .62-.89H602a2.78 2.78 0 0 1-2.84 2.14 3 3 0 0 1-1.57-.42 2.86 2.86 0 0 1-1.09-1.19 3.85 3.85 0 0 1-.4-1.8 3.93 3.93 0 0 1 .39-1.79 2.79 2.79 0 0 1 1.07-1.18 3.12 3.12 0 0 1 1.6-.41 2.87 2.87 0 0 1 1.55.41 2.77 2.77 0 0 1 1 1.12 3.5 3.5 0 0 1 .36 1.61q.05.32.02.66zm-1.29-2a1.64 1.64 0 0 0-.7-.68 2.07 2.07 0 0 0-1-.24 1.83 1.83 0 0 0-1.32.53 2.17 2.17 0 0 0-.63 1.46h3.9a2 2 0 0 0-.25-1.03zm3.59 4.73a2.12 2.12 0 0 1-.89-.72 2 2 0 0 1-.36-1.06h1.06a1.09 1.09 0 0 0 .43.8 1.58 1.58 0 0 0 1 .32 1.47 1.47 0 0 0 .93-.28.87.87 0 0 0 .33-.7.7.7 0 0 0-.36-.64 4.6 4.6 0 0 0-1.11-.41 7.84 7.84 0 0 1-1.12-.39 2 2 0 0 1-.75-.59 1.58 1.58 0 0 1-.31-1 1.69 1.69 0 0 1 .28-.92 2 2 0 0 1 .8-.67 2.81 2.81 0 0 1 1.19-.24 2.45 2.45 0 0 1 1.66.55 2 2 0 0 1 .67 1.51h-1a1.23 1.23 0 0 0-.39-.83 1.46 1.46 0 0 0-1-.31 1.48 1.48 0 0 0-.88.25.81.81 0 0 0-.32.66.76.76 0 0 0 .19.54 1.45 1.45 0 0 0 .5.33 8.29 8.29 0 0 0 .83.29 8.3 8.3 0 0 1 1.08.37 2 2 0 0 1 .72.56 1.56 1.56 0 0 1 .31 1 1.84 1.84 0 0 1-.28 1 2 2 0 0 1-.8.67 2.59 2.59 0 0 1-1.18.25 3.07 3.07 0 0 1-1.23-.34z"/></g><path d="M36.86 245.88a3.75 3.75 0 0 1 1.42-1.53 3.93 3.93 0 0 1 2.06-.54 3.78 3.78 0 0 1 2.41.79 3.86 3.86 0 0 1 1.34 2.16H42a1.86 1.86 0 0 0-.67-.81 1.84 1.84 0 0 0-1-.27 1.79 1.79 0 0 0-1.44.66 3.11 3.11 0 0 0 0 3.53 1.79 1.79 0 0 0 1.44.66 1.85 1.85 0 0 0 1-.28 1.78 1.78 0 0 0 .67-.8h2.12a3.71 3.71 0 0 1-3.75 2.94 3.94 3.94 0 0 1-2.06-.55 3.72 3.72 0 0 1-1.42-1.52 5.09 5.09 0 0 1 0-4.44zm10.34-2.43v8.88h-1.93v-8.88zm1.54 1.17a1.15 1.15 0 0 1 0-1.59 1.22 1.22 0 0 1 1.65 0 1.15 1.15 0 0 1 0 1.59 1.25 1.25 0 0 1-1.65 0zm1.79 1v6.7H48.6v-6.7zm7.29 3.85h-4.36a1.43 1.43 0 0 0 .38.95 1.1 1.1 0 0 0 .81.33 1 1 0 0 0 1-.64h2.05a3.16 3.16 0 0 1-.57 1.18 2.79 2.79 0 0 1-1 .83 3.15 3.15 0 0 1-1.39.3 3.2 3.2 0 0 1-1.64-.42 2.91 2.91 0 0 1-1.1-1.2 3.91 3.91 0 0 1-.41-1.82 4 4 0 0 1 .4-1.83 2.89 2.89 0 0 1 1.12-1.2 3.47 3.47 0 0 1 3.29 0 2.85 2.85 0 0 1 1.11 1.17 3.78 3.78 0 0 1 .4 1.76 4.22 4.22 0 0 1-.09.59zm-1.94-1.14a1.11 1.11 0 0 0-.33-.84 1.2 1.2 0 0 0-.85-.31 1.18 1.18 0 0 0-.82.3 1.35 1.35 0 0 0-.41.85zm8.59-2.01a3.1 3.1 0 0 1 .66 2.09v3.92h-1.92v-3.64a1.54 1.54 0 0 0-.32-1 1.13 1.13 0 0 0-.88-.38 1.1 1.1 0 0 0-.88.38 1.49 1.49 0 0 0-.33 1v3.64h-1.93v-6.7h1.93v.89a2 2 0 0 1 .79-.7 2.27 2.27 0 0 1 1.11-.26 2.22 2.22 0 0 1 1.77.76zm5.53 4.27v1.74h-1a2 2 0 0 1-2.22-2.33v-2.67H66v-1.7h.77V244h1.93v1.63H70v1.7h-1.3V250a.57.57 0 0 0 .14.43.62.62 0 0 0 .45.14zm6.94-1.12h-4.36a1.43 1.43 0 0 0 .38.95 1.11 1.11 0 0 0 .82.33 1 1 0 0 0 1-.64h2a2.88 2.88 0 0 1-.57 1.18 2.79 2.79 0 0 1-1 .83 3.15 3.15 0 0 1-1.39.3 3.2 3.2 0 0 1-1.62-.42 2.91 2.91 0 0 1-1.13-1.2 3.91 3.91 0 0 1-.41-1.82 4 4 0 0 1 .4-1.83 2.91 2.91 0 0 1 1.13-1.2 3.21 3.21 0 0 1 1.65-.42 3.26 3.26 0 0 1 1.63.41 2.85 2.85 0 0 1 1.11 1.17 3.66 3.66 0 0 1 .4 1.76 4.22 4.22 0 0 1-.04.6zM75 248.33a1.11 1.11 0 0 0-.34-.84 1.3 1.3 0 0 0-1.67 0 1.4 1.4 0 0 0-.41.85z" fill="#0074fd"/><g fill="#60769a"><path d="M319.62 283.47a1 1 0 0 0 0-1.35.89.89 0 0 0-1.32 0l-3.1 3.18-3.1-3.18a.82.82 0 0 0-.66-.29 1 1 0 0 0-.65 1.64l3.76 3.86h0a.9.9 0 0 0 1.31 0zm-269.16-2.84v-1h2.12v8.67h-1v-7.68zm4.54.03a2.68 2.68 0 0 1 4.41 0 6.81 6.81 0 0 1 .63 3.22 7 7 0 0 1-.63 3.27 2.68 2.68 0 0 1-4.41 0 7 7 0 0 1-.63-3.27 6.81 6.81 0 0 1 .63-3.22zm3.9 1.45a2.35 2.35 0 0 0-.53-1.17 1.75 1.75 0 0 0-2.32 0 2.26 2.26 0 0 0-.53 1.17 10 10 0 0 0-.13 1.77 10.39 10.39 0 0 0 .13 1.82 2.23 2.23 0 0 0 .53 1.17 1.72 1.72 0 0 0 2.32 0 2.31 2.31 0 0 0 .53-1.17 10.39 10.39 0 0 0 .13-1.82 10 10 0 0 0-.16-1.77zm4.64 3.32a9.83 9.83 0 0 0 1.37-1.65 3.09 3.09 0 0 0 .56-1.68 1.92 1.92 0 0 0-.36-1.23 1.35 1.35 0 0 0-1.14-.45 1.46 1.46 0 0 0-1.19.51 2.26 2.26 0 0 0-.46 1.36h-1a3 3 0 0 1 .77-2.08 2.78 2.78 0 0 1 3.7 0 2.55 2.55 0 0 1 .68 1.89 3.79 3.79 0 0 1-.55 1.94 8.9 8.9 0 0 1-1.27 1.65l-1.82 1.66h3.88v.92H61.3v-.78l2.24-2.06zm9.56-4.85h-3.95v2.74a1.78 1.78 0 0 1 .76-.63 2.77 2.77 0 0 1 2.62.17 2.27 2.27 0 0 1 .84 1.07 3.72 3.72 0 0 1 .25 1.38 3.83 3.83 0 0 1-.3 1.55 2.45 2.45 0 0 1-.93 1.08 2.9 2.9 0 0 1-1.55.4 2.81 2.81 0 0 1-1.92-.65A2.77 2.77 0 0 1 68 286h1a1.86 1.86 0 0 0 .62 1.07 1.89 1.89 0 0 0 1.2.38 1.61 1.61 0 0 0 1.34-.57 2.35 2.35 0 0 0 .45-1.5 2.12 2.12 0 0 0-.45-1.45 1.68 1.68 0 0 0-1.33-.51 1.73 1.73 0 0 0-1 .31 1.68 1.68 0 0 0-.65.83h-1v-4.9h4.9zm6.9-.09l-3.13 7.82h-1L79 280.6h-4.34v-.94H80zm1.66 2.51a2.16 2.16 0 0 1-.34-1.22 2.23 2.23 0 0 1 .31-1.17 2.08 2.08 0 0 1 .9-.83 3.28 3.28 0 0 1 1.47-.28 3.22 3.22 0 0 1 1.46.31 2.13 2.13 0 0 1 .92.83 2.32 2.32 0 0 1 .31 1.17 2.18 2.18 0 0 1-.35 1.22 2.1 2.1 0 0 1-1 .77 2.11 2.11 0 0 1 1.11.8 2.31 2.31 0 0 1 .41 1.37 2.51 2.51 0 0 1-.36 1.36 2.36 2.36 0 0 1-1 .9 3.33 3.33 0 0 1-1.52.32 3.25 3.25 0 0 1-1.5-.32 2.39 2.39 0 0 1-1-.9 2.51 2.51 0 0 1-.36-1.36 2.36 2.36 0 0 1 .4-1.38 2.08 2.08 0 0 1 1.11-.79 2.14 2.14 0 0 1-.97-.8zm1 1.66a1.5 1.5 0 0 0-.53 1.25 1.58 1.58 0 0 0 .51 1.23 2 2 0 0 0 1.38.47 2 2 0 0 0 1.38-.47 1.58 1.58 0 0 0 .51-1.23 1.51 1.51 0 0 0-.52-1.23 2.06 2.06 0 0 0-1.37-.43 2.18 2.18 0 0 0-1.39.44zm2.6-3.88a1.82 1.82 0 0 0-1.24-.39 1.81 1.81 0 0 0-1.22.39 1.43 1.43 0 0 0-.46 1.14 1.36 1.36 0 0 0 .47 1.08 2 2 0 0 0 2.44 0 1.56 1.56 0 0 0 0-2.22zm7.45 2.67v.93h-4.5v-.93zm3.88 1.98a9.83 9.83 0 0 0 1.41-1.65 3.09 3.09 0 0 0 .56-1.68 1.92 1.92 0 0 0-.36-1.23 1.37 1.37 0 0 0-1.14-.45 1.46 1.46 0 0 0-1.19.51 2.14 2.14 0 0 0-.46 1.36h-1a3 3 0 0 1 .77-2.08 2.49 2.49 0 0 1 1.86-.73 2.52 2.52 0 0 1 1.84.68 2.59 2.59 0 0 1 .68 1.89A3.8 3.8 0 0 1 99 284a8.12 8.12 0 0 1-1.27 1.65c-.47.48-1.07 1-1.81 1.66h3.88v.92h-5.46v-.78q1.44-1.24 2.25-2.02zm9.56-4.85h-4v2.74a1.81 1.81 0 0 1 .77-.63 2.75 2.75 0 0 1 2.61.17 2.21 2.21 0 0 1 .84 1.07 3.72 3.72 0 0 1 .26 1.38 3.67 3.67 0 0 1-.31 1.55 2.33 2.33 0 0 1-.93 1.08 2.85 2.85 0 0 1-1.55.4 2.76 2.76 0 0 1-1.91-.65 2.72 2.72 0 0 1-.89-1.73h1a1.81 1.81 0 0 0 .62 1.07 1.86 1.86 0 0 0 1.19.38 1.62 1.62 0 0 0 1.35-.57 2.35 2.35 0 0 0 .45-1.5 2.12 2.12 0 0 0-.45-1.45 1.69 1.69 0 0 0-1.33-.51 1.76 1.76 0 0 0-1.7 1.14h-1v-4.9h4.91z"/><path d="M704.72 86.13h-92.46a3.82 3.82 0 0 1-3.81-3.81V56.15a3.82 3.82 0 0 1 3.81-3.81h92.46a3.82 3.82 0 0 1 3.81 3.81v26.17a3.82 3.82 0 0 1-3.81 3.81zm-92.46-32.79a2.81 2.81 0 0 0-2.81 2.81v26.17a2.81 2.81 0 0 0 2.81 2.81h92.46a2.81 2.81 0 0 0 2.81-2.81V56.15a2.81 2.81 0 0 0-2.81-2.81z" opacity=".11"/><path d="M644.85 69.94a8 8 0 0 0 1.15-1.37 2.57 2.57 0 0 0 .47-1.4 1.6 1.6 0 0 0-.3-1 1.15 1.15 0 0 0-.95-.37 1.24 1.24 0 0 0-1 .42 1.87 1.87 0 0 0-.38 1.14H643a2.41 2.41 0 0 1 .64-1.73 2.31 2.31 0 0 1 3.08 0 2.12 2.12 0 0 1 .57 1.57 3.11 3.11 0 0 1-.46 1.61 7.41 7.41 0 0 1-1.06 1.38l-1.51 1.39h3.23v.76H643v-.65l1.85-1.75zM649 66a2.23 2.23 0 0 1 3.67 0 5.67 5.67 0 0 1 .53 2.69 5.81 5.81 0 0 1-.53 2.72 2.22 2.22 0 0 1-3.67 0 5.81 5.81 0 0 1-.53-2.72A5.67 5.67 0 0 1 649 66zm3.25 1.21a1.83 1.83 0 0 0-.45-1 1.21 1.21 0 0 0-1-.37 1.23 1.23 0 0 0-1 .37 1.9 1.9 0 0 0-.44 1 8.78 8.78 0 0 0-.11 1.48 9.08 9.08 0 0 0 .11 1.51 2 2 0 0 0 .44 1 1.27 1.27 0 0 0 1 .37 1.24 1.24 0 0 0 1-.37 1.9 1.9 0 0 0 .45-1 9.2 9.2 0 0 0 .1-1.51 8.89 8.89 0 0 0-.09-1.51zm3.9 2.73a8 8 0 0 0 1.14-1.37 2.57 2.57 0 0 0 .47-1.4 1.6 1.6 0 0 0-.3-1 1.13 1.13 0 0 0-1-.37 1.21 1.21 0 0 0-1 .42 1.75 1.75 0 0 0-.38 1.14h-.83a2.45 2.45 0 0 1 .75-1.76 2.31 2.31 0 0 1 3.08 0 2.12 2.12 0 0 1 .57 1.57 3.11 3.11 0 0 1-.46 1.61 7 7 0 0 1-1.06 1.38c-.39.4-.9.86-1.51 1.39h3.23v.76h-4.52v-.65l1.82-1.72zm3.41-3.94v-.83h1.77v7.23h-.87V66zm6.95 2.3v.77h-3.75v-.77zm1.99-2.3a2.23 2.23 0 0 1 3.67 0 5.67 5.67 0 0 1 .53 2.69 5.81 5.81 0 0 1-.53 2.72 2.22 2.22 0 0 1-3.67 0 5.81 5.81 0 0 1-.53-2.72 5.67 5.67 0 0 1 .53-2.69zm3.24 1.21a1.9 1.9 0 0 0-.44-1 1.44 1.44 0 0 0-1.93 0 1.91 1.91 0 0 0-.45 1 8.89 8.89 0 0 0-.1 1.48 9.2 9.2 0 0 0 .1 1.51 2 2 0 0 0 .45 1 1.44 1.44 0 0 0 1.93 0 2 2 0 0 0 .44-1 9.08 9.08 0 0 0 .11-1.51 8.78 8.78 0 0 0-.11-1.51zm3.67 4.08a1.35 1.35 0 0 0 .92.31 1.23 1.23 0 0 0 1.15-.65 4.6 4.6 0 0 0 .36-2.19 1.54 1.54 0 0 1-.66.7 2.1 2.1 0 0 1-1 .26 2.3 2.3 0 0 1-1.12-.28 1.86 1.86 0 0 1-.77-.8 2.69 2.69 0 0 1-.29-1.28 2.5 2.5 0 0 1 .59-1.73 2.07 2.07 0 0 1 1.65-.65 2 2 0 0 1 1.85.91 5.52 5.52 0 0 1 .53 2.71 8.6 8.6 0 0 1-.21 2.08 2.37 2.37 0 0 1-.72 1.25 2.06 2.06 0 0 1-1.37.43 2 2 0 0 1-1.5-.55 2.28 2.28 0 0 1-.61-1.4h.79a1.45 1.45 0 0 0 .41.88zm1.92-2.76a1.54 1.54 0 0 0 .4-1.12 1.8 1.8 0 0 0-.39-1.21 1.38 1.38 0 0 0-1.11-.46 1.31 1.31 0 0 0-1.05.44 1.68 1.68 0 0 0-.39 1.16 1.72 1.72 0 0 0 .39 1.17 1.41 1.41 0 0 0 1.12.44 1.38 1.38 0 0 0 1.03-.42zm6.17-.23v.77h-3.75v-.77zm1.24-2.3v-.83h1.77v7.23h-.87V66zm5 3.94a8 8 0 0 0 1.14-1.37 2.57 2.57 0 0 0 .47-1.4 1.6 1.6 0 0 0-.3-1 1.13 1.13 0 0 0-.95-.37 1.21 1.21 0 0 0-1 .42 1.75 1.75 0 0 0-.38 1.14h-.83a2.45 2.45 0 0 1 .64-1.73 2.31 2.31 0 0 1 3.08 0 2.12 2.12 0 0 1 .57 1.57 3.11 3.11 0 0 1-.46 1.61 7.41 7.41 0 0 1-1.06 1.38c-.39.4-.9.86-1.51 1.39h3.23v.76h-4.52v-.65l1.88-1.75zm-61.58-5.36h-.43v-.43a.43.43 0 1 0-.86 0v.43h-3.47v-.43a.43.43 0 1 0-.86 0v.43h-.44a1.27 1.27 0 0 0-1.29 1.3v.43h8.65v-.43a1.27 1.27 0 0 0-1.3-1.3zm-7.35 6.49a1.27 1.27 0 0 0 1.29 1.3h6.06a1.27 1.27 0 0 0 1.3-1.3v-3.89h-8.65zm6.49-3a.41.41 0 0 1 .43.44.43.43 0 0 1-.86 0 .41.41 0 0 1 .43-.51zm0 1.73a.41.41 0 0 1 .43.44.43.43 0 0 1-.86 0 .41.41 0 0 1 .43-.47zm-2.17-1.8a.42.42 0 0 1 .44.44.41.41 0 0 1-.44.43.4.4 0 0 1-.43-.43.41.41 0 0 1 .43-.44zm0 1.73a.42.42 0 0 1 .44.44.41.41 0 0 1-.44.43.4.4 0 0 1-.43-.43.41.41 0 0 1 .43-.4zM623 68a.41.41 0 0 1 .43.44.43.43 0 1 1-.86 0A.41.41 0 0 1 623 68zm0 1.73a.41.41 0 0 1 .43.44.43.43 0 1 1-.86 0 .41.41 0 0 1 .43-.4z"/></g><path d="M0 121.3h742.87v1H0zm0 210.93h742.87v1H0z" opacity=".26" fill="#80899d"/><g fill="#60769a"><path d="M617.56 360.38a3.86 3.86 0 0 1 1.41-1.53 3.7 3.7 0 0 1 2-.55 3.87 3.87 0 0 1 2.25.66 3.76 3.76 0 0 1 1.39 1.87h-1.23a2.56 2.56 0 0 0-.94-1.17 2.61 2.61 0 0 0-1.47-.4 2.76 2.76 0 0 0-1.48.4 2.89 2.89 0 0 0-1 1.16 4.35 4.35 0 0 0 0 3.51 2.79 2.79 0 0 0 1 1.15 2.68 2.68 0 0 0 1.48.41 2.61 2.61 0 0 0 1.47-.4 2.48 2.48 0 0 0 .94-1.16h1.23a3.77 3.77 0 0 1-1.39 1.86 3.94 3.94 0 0 1-2.25.65 3.7 3.7 0 0 1-2-.55 3.8 3.8 0 0 1-1.41-1.51 4.91 4.91 0 0 1 0-4.4zm8.57 1.31a2.83 2.83 0 0 1 1-1.19 2.75 2.75 0 0 1 1.49-.42 2.61 2.61 0 0 1 1.41.38 2.33 2.33 0 0 1 .89.93v-1.2h1v6.58h-1v-1.23a2.43 2.43 0 0 1-.9 1 2.63 2.63 0 0 1-1.41.38 2.68 2.68 0 0 1-1.49-.44 2.88 2.88 0 0 1-1-1.21 3.9 3.9 0 0 1-.39-1.77 3.79 3.79 0 0 1 .4-1.81zm4.56.48a2 2 0 0 0-.76-.84 1.94 1.94 0 0 0-1-.3 2 2 0 0 0-1.76 1.13 2.8 2.8 0 0 0-.28 1.3 2.84 2.84 0 0 0 .28 1.31 2 2 0 0 0 .76.85 1.89 1.89 0 0 0 1 .3 1.94 1.94 0 0 0 1-.3 2 2 0 0 0 .76-.85 2.83 2.83 0 0 0 .28-1.3 2.8 2.8 0 0 0-.28-1.3zm7.89-1.37a2.87 2.87 0 0 1 .7 2.09v3.88h-1v-3.72a2.25 2.25 0 0 0-.46-1.51 1.6 1.6 0 0 0-1.27-.52 1.64 1.64 0 0 0-1.29.54 2.29 2.29 0 0 0-.48 1.57v3.64h-1v-6.58h1v.94a2.08 2.08 0 0 1 .83-.78 2.6 2.6 0 0 1 3 .45zm2.42.89a2.83 2.83 0 0 1 2.63-1.61 2.93 2.93 0 0 1 1.88.59 2.82 2.82 0 0 1 1 1.63h-1.1a1.67 1.67 0 0 0-.62-.94 1.94 1.94 0 0 0-2.55.29 2.75 2.75 0 0 0-.54 1.82 2.77 2.77 0 0 0 .54 1.83 1.73 1.73 0 0 0 1.42.65 1.87 1.87 0 0 0 1.13-.33 1.74 1.74 0 0 0 .62-1h1.1a2.84 2.84 0 0 1-1 1.61 3 3 0 0 1-4.49-1 4 4 0 0 1-.38-1.8 4 4 0 0 1 .36-1.74zm12.41 2.2h-4.94a2.21 2.21 0 0 0 .63 1.52 1.93 1.93 0 0 0 1.38.54 1.83 1.83 0 0 0 1.11-.33 1.71 1.71 0 0 0 .63-.88h1.1a2.81 2.81 0 0 1-2.84 2.14 3 3 0 0 1-1.57-.42 2.82 2.82 0 0 1-1.09-1.2 4.25 4.25 0 0 1 0-3.58 2.73 2.73 0 0 1 1.07-1.18 3.06 3.06 0 0 1 1.6-.42 3 3 0 0 1 1.56.41 2.81 2.81 0 0 1 1 1.12 3.57 3.57 0 0 1 .36 1.62q.03.31 0 .66zm-1.28-2a1.81 1.81 0 0 0-.71-.69 2.16 2.16 0 0 0-1-.23 1.8 1.8 0 0 0-1.32.53 2.22 2.22 0 0 0-.63 1.46h3.9a2.12 2.12 0 0 0-.24-1.03zm3.69-4v8.88h-1v-8.88zm1.75 3.8a3 3 0 0 1 1-1.19 2.78 2.78 0 0 1 1.5-.42 2.61 2.61 0 0 1 1.41.38 2.4 2.4 0 0 1 .89.93v-1.2h1v6.58h-1v-1.23a2.46 2.46 0 0 1-.91 1 2.6 2.6 0 0 1-1.4.38 2.66 2.66 0 0 1-1.49-.44 3 3 0 0 1-1-1.21 3.9 3.9 0 0 1-.38-1.77 3.79 3.79 0 0 1 .38-1.81zm4.57.48a2 2 0 0 0-1.82-1.14 2 2 0 0 0-1.05.29 2.06 2.06 0 0 0-.75.84 2.8 2.8 0 0 0-.28 1.3 2.84 2.84 0 0 0 .28 1.31 2.09 2.09 0 0 0 .75.85 2 2 0 0 0 2.87-.85 3 3 0 0 0 .28-1.3 2.93 2.93 0 0 0-.28-1.3z"/><use xlink:href="#C" x="582.83" y="157.11"/></g><defs ><path id="B" d="M59.65 66.54a.78.78 0 0 1-.2-.53.76.76 0 0 1 .2-.53.68.68 0 0 1 .5-.22.64.64 0 0 1 .48.22.75.75 0 0 1 .19.53.77.77 0 0 1-.19.53.63.63 0 0 1-.48.21.67.67 0 0 1-.5-.21zm1 1.28v6.58h-1v-6.58z"/><path id="C" d="M84.17 203.27a2.35 2.35 0 0 1 1.22-.31v1.13h-.27c-1.15 0-1.72.66-1.72 2v3.58h-1v-6.58h1v1.07a2.07 2.07 0 0 1 .77-.89z"/><path id="D" d="M101.08 201.8a.77.77 0 0 1 0-1.06.65.65 0 0 1 .49-.21.63.63 0 0 1 .48.21.8.8 0 0 1 0 1.06.63.63 0 0 1-.48.21.65.65 0 0 1-.49-.21zm1 1.28v6.58h-1v-6.58z"/><path id="E" d="M414.29 201.71a2.68 2.68 0 0 1 4.41 0 6.81 6.81 0 0 1 .63 3.22 7 7 0 0 1-.63 3.27 2.68 2.68 0 0 1-4.41 0 7 7 0 0 1-.63-3.27 6.81 6.81 0 0 1 .63-3.22zm3.9 1.45a2.35 2.35 0 0 0-.53-1.17 1.75 1.75 0 0 0-2.32 0 2.26 2.26 0 0 0-.53 1.17 10 10 0 0 0-.13 1.77 10.39 10.39 0 0 0 .13 1.82 2.23 2.23 0 0 0 .53 1.17 1.72 1.72 0 0 0 2.32 0 2.31 2.31 0 0 0 .53-1.17 11.46 11.46 0 0 0 .13-1.82 11.06 11.06 0 0 0-.13-1.77z"/></defs></svg>