<svg xmlns="http://www.w3.org/2000/svg" viewBox="0 0 445.49 168.74" xmlns:v="https://vecta.io/nano"><path d="M0 0h445.49v168.74H0z" fill="#fff"/><g fill="#60769a"><path d="M34.24 38.16a2.75 2.75 0 0 1-2.05.69h-1.51v3.49h-1V34h2.53a2.75 2.75 0 0 1 2 .68 2.59 2.59 0 0 1 0 3.5zm-.78-.61a1.5 1.5 0 0 0 .4-1.13c0-1-.55-1.54-1.67-1.54h-1.51V38h1.51a1.74 1.74 0 0 0 1.27-.45zm8.33 1.91h-4.94a2.21 2.21 0 0 0 .63 1.54 1.93 1.93 0 0 0 1.38.54 1.83 1.83 0 0 0 1.14-.35 1.76 1.76 0 0 0 .62-.88h1.08a2.81 2.81 0 0 1-2.84 2.14 3 3 0 0 1-1.58-.45 2.87 2.87 0 0 1-1.08-1.2 3.78 3.78 0 0 1-.4-1.8 4 4 0 0 1 .38-1.79 2.87 2.87 0 0 1 1.08-1.18 3 3 0 0 1 1.6-.41 3 3 0 0 1 1.55.4 2.86 2.86 0 0 1 1.05 1.13 3.5 3.5 0 0 1 .36 1.61q0 .35-.03.7zm-1.29-2a1.79 1.79 0 0 0-.7-.69 2.19 2.19 0 0 0-1-.23 1.83 1.83 0 0 0-1.32.53 2.17 2.17 0 0 0-.63 1.46h3.9a2 2 0 0 0-.25-1.03zM45 36a2.3 2.3 0 0 1 1.23-.32v1.13h-.27c-1.15 0-1.73.67-1.73 2v3.58h-1v-6.63h1v1.07A2 2 0 0 1 45 36zm2.41-1.52a.76.76 0 0 1-.2-.53.78.78 0 0 1 .2-.53.67.67 0 0 1 .5-.21.63.63 0 0 1 .48.21.78.78 0 0 1 .2.53.76.76 0 0 1-.2.53.64.64 0 0 1-.48.22.68.68 0 0 1-.5-.22zm1 1.28v6.58h-1v-6.58zM51.28 42a2.93 2.93 0 0 1-1.11-1.2 4.14 4.14 0 0 1 0-3.57 3 3 0 0 1 1.12-1.19 3.09 3.09 0 0 1 1.59-.41 3 3 0 0 1 1.59.41 2.9 2.9 0 0 1 1.12 1.18A3.67 3.67 0 0 1 56 39a3.57 3.57 0 0 1-.43 1.79A3 3 0 0 1 54.45 42a3.13 3.13 0 0 1-1.6.42 3 3 0 0 1-1.57-.42zm2.61-.82a2 2 0 0 0 .78-.83A2.74 2.74 0 0 0 55 39a2.86 2.86 0 0 0-.29-1.34 2 2 0 0 0-2.8-.83 2 2 0 0 0-.75.83 2.86 2.86 0 0 0-.34 1.34 3.08 3.08 0 0 0 .27 1.36 2 2 0 0 0 .74.82 2 2 0 0 0 1 .27 2 2 0 0 0 1.06-.24zm3.48-3.92a3 3 0 0 1 1.05-1.18 2.79 2.79 0 0 1 1.51-.42 2.61 2.61 0 0 1 1.34.35 2.57 2.57 0 0 1 .95.93v-3.48h1v8.88h-1V41.1a2.54 2.54 0 0 1-.9 1 2.6 2.6 0 0 1-1.4.38 2.79 2.79 0 0 1-1.5-.43 3.07 3.07 0 0 1-1.05-1.22A3.9 3.9 0 0 1 57 39a3.84 3.84 0 0 1 .37-1.74zm4.57.48a2.14 2.14 0 0 0-.76-.84 2 2 0 0 0-1.06-.3 2 2 0 0 0-1.75 1.13A2.8 2.8 0 0 0 58 39a2.84 2.84 0 0 0 .29 1.31 2 2 0 0 0 .75.85 1.94 1.94 0 0 0 1 .3 2 2 0 0 0 1.06-.3 2.11 2.11 0 0 0 .76-.85 3.16 3.16 0 0 0 0-2.6zM66.11 42a2.85 2.85 0 0 1-1.1-1.2 4.14 4.14 0 0 1 0-3.57 2.93 2.93 0 0 1 1.12-1.19 3.29 3.29 0 0 1 3.18 0 3 3 0 0 1 1.12 1.18 4.07 4.07 0 0 1 0 3.58 3 3 0 0 1-1.14 1.2 3.13 3.13 0 0 1-1.6.42 3 3 0 0 1-1.58-.42zm2.61-.82a2 2 0 0 0 .79-.83 3.14 3.14 0 0 0 0-2.68 2 2 0 0 0-.76-.83 2.06 2.06 0 0 0-1-.27 2 2 0 0 0-1.75 1.1 2.86 2.86 0 0 0-.34 1.33 3.08 3.08 0 0 0 .27 1.36 2 2 0 0 0 2.79.81zM49.07 68.33A2.75 2.75 0 0 1 47 69h-1.49v3.5h-1v-8.35H47a2.73 2.73 0 0 1 2 .69 2.33 2.33 0 0 1 .7 1.76 2.4 2.4 0 0 1-.63 1.73zm-.79-.6a1.52 1.52 0 0 0 .41-1.13c0-1-.56-1.55-1.67-1.55h-1.51v3.07H47a1.76 1.76 0 0 0 1.28-.39zm3.85 4.47A2.88 2.88 0 0 1 51 71a4.16 4.16 0 0 1 0-3.58 2.9 2.9 0 0 1 1.12-1.18 3.1 3.1 0 0 1 1.59-.42 3 3 0 0 1 1.59.42 2.9 2.9 0 0 1 1.12 1.18 4 4 0 0 1 0 3.58 3 3 0 0 1-1.14 1.19 3.13 3.13 0 0 1-1.6.42 3 3 0 0 1-1.55-.41zm2.61-.81a2 2 0 0 0 .79-.83 3.17 3.17 0 0 0 0-2.69 2 2 0 0 0-.76-.82 2.06 2.06 0 0 0-1-.27 2 2 0 0 0-1 .27 1.94 1.94 0 0 0-.75.82 2.93 2.93 0 0 0-.28 1.35 3.07 3.07 0 0 0 .26 1.35 1.92 1.92 0 0 0 .74.82 2 2 0 0 0 1 .27 2.09 2.09 0 0 0 1-.27zM60 66.13a2.23 2.23 0 0 1 1.22-.31V67H61c-1.15 0-1.73.66-1.73 2v3.58h-1v-6.64h1V67a2 2 0 0 1 .73-.87zm14.16.01a2.28 2.28 0 0 1 .89 1 3.35 3.35 0 0 1 .33 1.55v3.88h-1V68.8a2.25 2.25 0 0 0-.45-1.51 1.57 1.57 0 0 0-1.24-.52 1.6 1.6 0 0 0-1.27.54 2.33 2.33 0 0 0-.48 1.58v3.63h-1V68.8a2.2 2.2 0 0 0-.46-1.51 1.53 1.53 0 0 0-1.23-.52 1.62 1.62 0 0 0-1.28.54 2.38 2.38 0 0 0-.47 1.58v3.63h-1v-6.58h1v1a2 2 0 0 1 .82-.79 2.28 2.28 0 0 1 1.13-.28 2.55 2.55 0 0 1 1.38.37 2.31 2.31 0 0 1 .89 1.09 2.13 2.13 0 0 1 .85-1.08 2.48 2.48 0 0 1 1.33-.38 2.62 2.62 0 0 1 1.26.27zm8.5 3.5h-4.94a2.19 2.19 0 0 0 .63 1.51 1.9 1.9 0 0 0 1.38.55 1.83 1.83 0 0 0 1.11-.33 1.77 1.77 0 0 0 .63-.88h1.1a2.91 2.91 0 0 1-1 1.54 2.85 2.85 0 0 1-1.85.59 3 3 0 0 1-1.57-.42 2.8 2.8 0 0 1-1.08-1.2 3.81 3.81 0 0 1-.4-1.79 3.9 3.9 0 0 1 .39-1.79 2.73 2.73 0 0 1 1.07-1.18 3.06 3.06 0 0 1 1.6-.42 3 3 0 0 1 1.56.41 2.81 2.81 0 0 1 1 1.12 3.57 3.57 0 0 1 .4 1.65q0 .28-.03.64zm-1.28-2a1.78 1.78 0 0 0-.71-.68 2 2 0 0 0-1-.23 1.83 1.83 0 0 0-1.32.52 2.25 2.25 0 0 0-.63 1.47h3.9a2.16 2.16 0 0 0-.24-1.05zM85 72.37a2.29 2.29 0 0 1-.89-.72 2 2 0 0 1-.36-1.07h1.06a1.13 1.13 0 0 0 .43.81 1.57 1.57 0 0 0 1 .31 1.41 1.41 0 0 0 .93-.28.86.86 0 0 0 .34-.69.69.69 0 0 0-.36-.64 5.33 5.33 0 0 0-1.15-.42 8.31 8.31 0 0 1-1.12-.39 2 2 0 0 1-.75-.59 1.63 1.63 0 0 1-.31-1 1.69 1.69 0 0 1 .28-.93 1.91 1.91 0 0 1 .81-.66 2.62 2.62 0 0 1 1.18-.25 2.48 2.48 0 0 1 1.66.55 2.06 2.06 0 0 1 .67 1.52h-1a1.17 1.17 0 0 0-.39-.83 1.39 1.39 0 0 0-1-.31 1.38 1.38 0 0 0-.88.25.8.8 0 0 0-.33.66.76.76 0 0 0 .2.53 1.48 1.48 0 0 0 .49.34 8.68 8.68 0 0 0 .83.28 8.16 8.16 0 0 1 1.08.38 1.86 1.86 0 0 1 .72.56 1.54 1.54 0 0 1 .31 1 1.72 1.72 0 0 1-.28 1 2 2 0 0 1-.8.68 2.73 2.73 0 0 1-1.18.24 3.06 3.06 0 0 1-1.19-.33z"/><path d="M209.78 84.1H33.26a3.81 3.81 0 0 1-3.8-3.81V56.54a3.81 3.81 0 0 1 3.8-3.81h176.52a3.82 3.82 0 0 1 3.81 3.81v23.75a3.82 3.82 0 0 1-3.81 3.81zM33.26 53.73a2.81 2.81 0 0 0-2.8 2.81v23.75a2.81 2.81 0 0 0 2.8 2.81h176.52a2.81 2.81 0 0 0 2.81-2.81V56.54a2.81 2.81 0 0 0-2.81-2.81z" opacity=".11"/><path d="M199.14 66.27a.88.88 0 0 0 0-1.25.84.84 0 0 0-1.22 0l-2.87 3-2.87-3a.78.78 0 0 0-.61-.26.83.83 0 0 0-.87.89.81.81 0 0 0 .26.62l3.48 3.58h0a.82.82 0 0 0 1.22 0zM88.67 33.21a6.74 6.74 0 1 0 2 4.76 6.69 6.69 0 0 0-2-4.76zm-4.76-.13a1.45 1.45 0 1 1-1.45 1.45 1.45 1.45 0 0 1 1.45-1.45zm1.84 9.21h-3.68v-.79h.79v-4h-.79v-.79H85v4.79h.79zm167.4-7.52v8.31h-1v-6.19l-2.6 6.19h-.72l-2.6-6.21v6.21h-1v-8.31h1.1l2.89 6.87 2.89-6.87zm7.34 5.43h-4.94a2.21 2.21 0 0 0 .63 1.52 1.93 1.93 0 0 0 1.38.54 1.83 1.83 0 0 0 1.11-.33 1.71 1.71 0 0 0 .63-.88h1.1a2.76 2.76 0 0 1-1 1.54 2.85 2.85 0 0 1-1.85.6 3 3 0 0 1-1.57-.42 2.82 2.82 0 0 1-1.09-1.2 4.25 4.25 0 0 1 0-3.58 2.69 2.69 0 0 1 1.11-1.18 3.27 3.27 0 0 1 3.15 0 2.81 2.81 0 0 1 1 1.12 3.58 3.58 0 0 1 .37 1.62c.01.2-.01.45-.03.65zm-1.28-2a1.81 1.81 0 0 0-.71-.69 2.16 2.16 0 0 0-1-.23 1.8 1.8 0 0 0-1.32.53 2.27 2.27 0 0 0-.63 1.46h3.91a2.15 2.15 0 0 0-.25-1.03zm3.58 4.73a2.19 2.19 0 0 1-.89-.72 2 2 0 0 1-.36-1.06h1.06a1.11 1.11 0 0 0 .43.8 1.57 1.57 0 0 0 1 .31A1.47 1.47 0 0 0 265 42a.9.9 0 0 0 .34-.7.69.69 0 0 0-.36-.64 5.12 5.12 0 0 0-1.12-.42 6.22 6.22 0 0 1-1.12-.39 2 2 0 0 1-.75-.58 1.66 1.66 0 0 1-.31-1 1.62 1.62 0 0 1 .29-.92 1.84 1.84 0 0 1 .8-.67 2.76 2.76 0 0 1 1.18-.24 2.43 2.43 0 0 1 1.66.55 2 2 0 0 1 .67 1.51h-1a1.13 1.13 0 0 0-.39-.83 1.64 1.64 0 0 0-1.83-.06.8.8 0 0 0-.33.66.74.74 0 0 0 .2.53 1.34 1.34 0 0 0 .49.34 6.55 6.55 0 0 0 .83.28 8.58 8.58 0 0 1 1.08.38 1.86 1.86 0 0 1 .72.56 1.56 1.56 0 0 1 .31 1 1.7 1.7 0 0 1-.28 1 1.85 1.85 0 0 1-.8.68 2.72 2.72 0 0 1-1.17.25 3.08 3.08 0 0 1-1.32-.36zm7.98-4.93a3 3 0 0 1 1.06-1.19 2.77 2.77 0 0 1 1.5-.41 2.67 2.67 0 0 1 1.35.35 2.4 2.4 0 0 1 .94.93V34.2h1v8.88h-1v-1.24a2.46 2.46 0 0 1-.9 1 2.57 2.57 0 0 1-1.4.38 2.68 2.68 0 0 1-1.49-.44 2.92 2.92 0 0 1-1.06-1.21 4 4 0 0 1-.38-1.77 3.91 3.91 0 0 1 .38-1.8zm4.57.48a2 2 0 0 0-.76-.84 1.94 1.94 0 0 0-1.05-.3 2 2 0 0 0-1.76 1.13 2.8 2.8 0 0 0-.28 1.3 2.84 2.84 0 0 0 .28 1.31 2 2 0 0 0 .76.85 1.89 1.89 0 0 0 1 .3 1.94 1.94 0 0 0 1.05-.3 2 2 0 0 0 .76-.85 2.83 2.83 0 0 0 .28-1.3 2.8 2.8 0 0 0-.28-1.3zM284 40.2h-4.94a2.21 2.21 0 0 0 .63 1.52 1.93 1.93 0 0 0 1.38.54 1.83 1.83 0 0 0 1.11-.33 1.7 1.7 0 0 0 .62-.88h1.11a2.81 2.81 0 0 1-2.84 2.14 3 3 0 0 1-1.57-.42 2.82 2.82 0 0 1-1.09-1.2 3.78 3.78 0 0 1-.4-1.79 3.9 3.9 0 0 1 .39-1.78 2.73 2.73 0 0 1 1.07-1.18 3.05 3.05 0 0 1 1.6-.41 3 3 0 0 1 1.56.4 2.81 2.81 0 0 1 1 1.12 3.57 3.57 0 0 1 .36 1.62q.01.31.01.65zm-1.28-2a1.81 1.81 0 0 0-.71-.69 2.16 2.16 0 0 0-1-.23 1.8 1.8 0 0 0-1.32.53 2.22 2.22 0 0 0-.63 1.46H283a2.14 2.14 0 0 0-.28-1.03z"/><path d="M418.93 84.78H242.42a3.82 3.82 0 0 1-3.81-3.78V57.23a3.81 3.81 0 0 1 3.81-3.81h176.51a3.81 3.81 0 0 1 3.81 3.81V81a3.82 3.82 0 0 1-3.81 3.78zM242.42 54.42a2.81 2.81 0 0 0-2.81 2.81V81a2.81 2.81 0 0 0 2.81 2.81h176.51a2.81 2.81 0 0 0 2.81-2.81V57.23a2.81 2.81 0 0 0-2.81-2.81z" opacity=".11"/><path d="M405.66 68a.88.88 0 0 0 0-1.25.82.82 0 0 0-1.22 0l-2.87 2.95-2.87-2.95a.78.78 0 0 0-.61-.27.84.84 0 0 0-.87.9.82.82 0 0 0 .26.62l3.52 3.59h0a.84.84 0 0 0 1.22 0zm-134.19-1.67v-.83h1.77v7.23h-.86v-6.4zm3.76.03a2.23 2.23 0 0 1 3.68 0 5.67 5.67 0 0 1 .52 2.68 5.76 5.76 0 0 1-.52 2.72 2.23 2.23 0 0 1-3.68 0 5.76 5.76 0 0 1-.52-2.72 5.67 5.67 0 0 1 .52-2.68zm3.25 1.21a2 2 0 0 0-.44-1 1.28 1.28 0 0 0-1-.37 1.27 1.27 0 0 0-1 .37 2 2 0 0 0-.44 1 8.65 8.65 0 0 0-.11 1.47 9 9 0 0 0 .11 1.51 1.89 1.89 0 0 0 .44 1 1.23 1.23 0 0 0 1 .37 1.24 1.24 0 0 0 1-.37 1.89 1.89 0 0 0 .44-1 9 9 0 0 0 .11-1.51 8.65 8.65 0 0 0-.11-1.47zm5.46-4.26l-2.57 11.12h-.85l2.57-11.12zm2.9 7.02A7.61 7.61 0 0 0 288 69a2.59 2.59 0 0 0 .46-1.41 1.65 1.65 0 0 0-.29-1 1.16 1.16 0 0 0-1-.38 1.24 1.24 0 0 0-1 .43 1.86 1.86 0 0 0-.38 1.13H285a2.53 2.53 0 0 1 .64-1.73 2.11 2.11 0 0 1 1.55-.61 2.08 2.08 0 0 1 1.54.57 2.13 2.13 0 0 1 .57 1.57 3.13 3.13 0 0 1-.47 1.62 7.37 7.37 0 0 1-1.05 1.38l-1.52 1.38h3.23v.76H285V72l1.84-1.67zm4.16-3.97a2.22 2.22 0 0 1 3.67 0 5.66 5.66 0 0 1 .53 2.68 5.75 5.75 0 0 1-.53 2.72 2.22 2.22 0 0 1-3.67 0 5.75 5.75 0 0 1-.53-2.72 5.66 5.66 0 0 1 .53-2.68zm3.24 1.21a2 2 0 0 0-.44-1 1.44 1.44 0 0 0-1.93 0 2 2 0 0 0-.45 1 8.76 8.76 0 0 0-.1 1.47 9.12 9.12 0 0 0 .1 1.51 1.9 1.9 0 0 0 .45 1 1.44 1.44 0 0 0 1.93 0 1.89 1.89 0 0 0 .44-1 8 8 0 0 0 .11-1.51 7.73 7.73 0 0 0-.1-1.47zm3.91 2.76a8 8 0 0 0 1.14-1.33 2.6 2.6 0 0 0 .47-1.41 1.59 1.59 0 0 0-.3-1 1.15 1.15 0 0 0-.95-.38 1.25 1.25 0 0 0-1 .43 1.86 1.86 0 0 0-.38 1.13h-.82A2.44 2.44 0 0 1 297 66a2.09 2.09 0 0 1 1.55-.61 2.07 2.07 0 0 1 1.53.57 2.13 2.13 0 0 1 .57 1.57 3.11 3.11 0 0 1-.46 1.62 7.41 7.41 0 0 1-1.06 1.38l-1.51 1.38h3.23v.76h-4.52V72l1.82-1.67zm3.41-4v-.83h1.76v7.23h-.86v-6.4zM261.78 66h-.43v-.43a.44.44 0 1 0-.87 0V66H257v-.43a.41.41 0 0 0-.43-.44.42.42 0 0 0-.44.44V66h-.43a1.27 1.27 0 0 0-1.3 1.3v.43h8.66v-.43a1.27 1.27 0 0 0-1.28-1.3zm-7.36 6.49a1.27 1.27 0 0 0 1.3 1.3h6.06a1.27 1.27 0 0 0 1.3-1.3v-3.92h-8.66zm6.49-3a.41.41 0 0 1 .44.43.44.44 0 1 1-.87 0 .41.41 0 0 1 .43-.49zm0 1.73a.42.42 0 0 1 .44.44.44.44 0 0 1-.87 0 .42.42 0 0 1 .43-.5zm-2.16-1.73a.4.4 0 0 1 .43.43.43.43 0 1 1-.86 0 .4.4 0 0 1 .43-.49zm0 1.73a.41.41 0 0 1 .43.44.43.43 0 0 1-.86 0 .41.41 0 0 1 .43-.5zm-2.16-1.73a.4.4 0 0 1 .43.43.41.41 0 0 1-.43.44.42.42 0 0 1-.44-.44.41.41 0 0 1 .44-.49zm0 1.73a.41.41 0 0 1 .43.44.4.4 0 0 1-.43.43.41.41 0 0 1-.44-.43.42.42 0 0 1 .44-.5z"/></g><rect x="28.48" y="105.42" width="101.69" height="29.17" rx="3.31" fill="#0074fd"/><path d="M66.07 119.8a2.19 2.19 0 0 1 .78 1.69 2.12 2.12 0 0 1-1.19 2 3 3 0 0 1-1.37.29h-2.93v-8.36h2.81a3 3 0 0 1 1.37.28 2 2 0 0 1 .84.76 2.08 2.08 0 0 1 .29 1.08 1.94 1.94 0 0 1-.38 1.23 2.14 2.14 0 0 1-1 .71 1.49 1.49 0 0 1 .78.32zm-3.69-.8h1.73a1.58 1.58 0 0 0 1.11-.36 1.44 1.44 0 0 0 0-2 1.62 1.62 0 0 0-1.14-.36h-1.7zm3 3.47a1.35 1.35 0 0 0 .43-1.07 1.41 1.41 0 0 0-.45-1.1 1.78 1.78 0 0 0-1.21-.4h-1.77v3h1.82a1.69 1.69 0 0 0 1.19-.45zm8.37-5.31v6.57h-1v-1a2.08 2.08 0 0 1-.82.79 2.36 2.36 0 0 1-1.15.28 2.66 2.66 0 0 1-1.3-.32 2.26 2.26 0 0 1-.91-1 3.35 3.35 0 0 1-.33-1.55v-3.85h1v3.71a2.18 2.18 0 0 0 .47 1.49 1.59 1.59 0 0 0 1.26.52 1.65 1.65 0 0 0 1.3-.54 2.34 2.34 0 0 0 .47-1.57v-3.61zm2.65 6.42a2.06 2.06 0 0 1-.89-.72 2 2 0 0 1-.37-1.06h1.06a1.14 1.14 0 0 0 .44.81 1.63 1.63 0 0 0 1 .31 1.37 1.37 0 0 0 .92-.28.83.83 0 0 0 .34-.69.7.7 0 0 0-.36-.65 5 5 0 0 0-1.12-.41 8.84 8.84 0 0 1-1.12-.39 2 2 0 0 1-.74-.59 1.57 1.57 0 0 1-.31-1 1.62 1.62 0 0 1 .28-.93 2 2 0 0 1 .8-.67 2.8 2.8 0 0 1 1.18-.24 2.41 2.41 0 0 1 1.66.55 2 2 0 0 1 .68 1.51h-1a1.11 1.11 0 0 0-.39-.82 1.36 1.36 0 0 0-1-.32 1.4 1.4 0 0 0-.88.26.77.77 0 0 0-.33.66.76.76 0 0 0 .2.53 1.52 1.52 0 0 0 .5.34c.2.08.47.17.83.28a8.16 8.16 0 0 1 1.08.38 1.82 1.82 0 0 1 .71.55 1.6 1.6 0 0 1 .32 1 1.73 1.73 0 0 1-.29 1 1.89 1.89 0 0 1-.79.68 2.76 2.76 0 0 1-1.18.24 3 3 0 0 1-1.23-.33zm4.97-4.93a2.83 2.83 0 0 1 1.06-1.18 3.21 3.21 0 0 1 3.44.17 2.8 2.8 0 0 1 1 1.63h-1.13a1.68 1.68 0 0 0-.61-1A1.83 1.83 0 0 0 84 118a1.79 1.79 0 0 0-1.43.65 2.72 2.72 0 0 0-.54 1.81 2.79 2.79 0 0 0 .54 1.84 1.94 1.94 0 0 0 2.55.31 1.67 1.67 0 0 0 .62-1h1.11a3 3 0 0 1-1 1.62 2.88 2.88 0 0 1-1.86.6 3 3 0 0 1-1.57-.42 2.8 2.8 0 0 1-1.06-1.19 3.92 3.92 0 0 1-.39-1.8 3.86 3.86 0 0 1 .4-1.77zm6.84 0a2.9 2.9 0 0 1 1.06-1.18 2.72 2.72 0 0 1 1.49-.42 2.6 2.6 0 0 1 1.41.37 2.42 2.42 0 0 1 .89.94v-1.2h1v6.57h-1v-1.22a2.58 2.58 0 0 1-2.31 1.33 2.65 2.65 0 0 1-1.49-.43 3 3 0 0 1-1.05-1.21 4 4 0 0 1-.38-1.78 4 4 0 0 1 .38-1.77zm4.57.49a2.1 2.1 0 0 0-.76-.85A2 2 0 0 0 91 118a1.93 1.93 0 0 0-1 .29 2.06 2.06 0 0 0-.75.84 2.76 2.76 0 0 0-.28 1.29 2.88 2.88 0 0 0 .28 1.32 2.15 2.15 0 0 0 .75.85 2.06 2.06 0 0 0 2.11 0 2.1 2.1 0 0 0 .76-.85 2.87 2.87 0 0 0 .28-1.31 2.79 2.79 0 0 0-.37-1.29zm4.85-1.79a2.29 2.29 0 0 1 1.23-.31v1.13h-.27c-1.16 0-1.73.66-1.73 2v3.57h-1v-6.57h1v1.07a2.07 2.07 0 0 1 .77-.89z" fill="#fff"/><rect x="139.58" y="105.42" width="112.42" height="29.17" rx="3.31" fill="#fc4e4b"/><path d="M163.48 116.26v2.79h2.86v.9h-2.86v2.88h3.2v.9h-4.23v-8.37h4.23v.9zm7.98 7.47l-1.46-2.44-1.41 2.44h-1.07l2-3.26-2-3.31h1.16l1.47 2.43 1.4-2.43h1.07l-2 3.25 2 3.32zm4.11-6.3a2.6 2.6 0 0 1 1.4-.38 2.78 2.78 0 0 1 1.5.42 3 3 0 0 1 1.05 1.18 3.84 3.84 0 0 1 .38 1.77 3.91 3.91 0 0 1-.38 1.78 3 3 0 0 1-1.05 1.21 2.71 2.71 0 0 1-1.5.43 2.5 2.5 0 0 1-1.39-.38 2.58 2.58 0 0 1-.92-.94v4.33h-1v-9.69h1v1.21a2.48 2.48 0 0 1 .91-.94zm3 1.7a2 2 0 0 0-2.85-.84 2.12 2.12 0 0 0-.77.85 3.06 3.06 0 0 0 0 2.6 2.12 2.12 0 0 0 .77.85 2 2 0 0 0 1 .29 2 2 0 0 0 1.81-1.14 2.89 2.89 0 0 0 .29-1.32 2.76 2.76 0 0 0-.25-1.29zm3.81 4.29a3 3 0 0 1-1.11-1.19 4 4 0 0 1-.4-1.8 3.69 3.69 0 0 1 .42-1.78 2.92 2.92 0 0 1 1.12-1.19 3.14 3.14 0 0 1 1.59-.41 3.19 3.19 0 0 1 1.59.41 3 3 0 0 1 1.12 1.19 4.07 4.07 0 0 1 0 3.58 3.06 3.06 0 0 1-1.15 1.19 3.11 3.11 0 0 1-1.6.42 3 3 0 0 1-1.58-.42zm2.61-.81a2.09 2.09 0 0 0 .78-.83 2.81 2.81 0 0 0 .3-1.35 2.91 2.91 0 0 0-.29-1.34 2 2 0 0 0-1.77-1.09 2.07 2.07 0 0 0-1 .27 1.94 1.94 0 0 0-.75.82 3 3 0 0 0-.28 1.34 2.94 2.94 0 0 0 .28 1.36 1.86 1.86 0 0 0 .74.82 2 2 0 0 0 1 .27 2.1 2.1 0 0 0 1-.27zm5.28-5.26a2.26 2.26 0 0 1 1.22-.31v1.13h-.27c-1.15 0-1.72.66-1.72 2v3.57h-1v-6.57h1v1.07a2.07 2.07 0 0 1 .77-.89zm3.66.71v3.87a1 1 0 0 0 .19.68.92.92 0 0 0 .67.2h.75v.92h-.92a1.79 1.79 0 0 1-1.29-.42 1.9 1.9 0 0 1-.43-1.38v-3.87h-.8v-.9h.8v-1.66h1v1.66h1.61v.9zm2.85.59a2.9 2.9 0 0 1 1.06-1.18 2.72 2.72 0 0 1 1.49-.42 2.6 2.6 0 0 1 1.41.37 2.42 2.42 0 0 1 .89.94v-1.2h1v6.57h-1v-1.22a2.43 2.43 0 0 1-.91.95 2.51 2.51 0 0 1-1.4.38 2.65 2.65 0 0 1-1.49-.43 3 3 0 0 1-1.05-1.21 4 4 0 0 1-.38-1.78 4 4 0 0 1 .38-1.77zm4.57.49a2.1 2.1 0 0 0-.76-.85 2 2 0 0 0-1.06-.29 1.93 1.93 0 0 0-1.05.29 2.06 2.06 0 0 0-.75.84 2.76 2.76 0 0 0-.28 1.29 2.88 2.88 0 0 0 .28 1.32 2.15 2.15 0 0 0 .75.85 2.06 2.06 0 0 0 2.11 0 2.1 2.1 0 0 0 .76-.85 2.87 2.87 0 0 0 .28-1.31 2.79 2.79 0 0 0-.28-1.29zm4.85-1.79a2.29 2.29 0 0 1 1.23-.31v1.13h-.27c-1.15 0-1.73.66-1.73 2v3.57h-1v-6.57h1v1.07a2.07 2.07 0 0 1 .77-.89zm10 2.2a2.72 2.72 0 0 1-2 .69h-1.51v3.49h-1v-8.36h2.54a2.79 2.79 0 0 1 2 .68 2.59 2.59 0 0 1 0 3.5zm-.78-.6a1.52 1.52 0 0 0 .41-1.13c0-1-.56-1.55-1.67-1.55h-1.51v3.07h1.51a1.76 1.76 0 0 0 1.26-.34zm7.4-3.07a3.44 3.44 0 0 1 1.44 1.46 4.62 4.62 0 0 1 .51 2.23 4.55 4.55 0 0 1-.51 2.22 3.41 3.41 0 0 1-1.44 1.45 4.73 4.73 0 0 1-2.23.49h-2.44v-8.36h2.44a4.62 4.62 0 0 1 2.23.51zm.1 6.1a3.44 3.44 0 0 0 .8-2.41 3.47 3.47 0 0 0-.81-2.44 3 3 0 0 0-2.32-.87h-1.41v6.57h1.41a3 3 0 0 0 2.33-.83zm7.64-6.61v.89h-3.41v2.82h2.77v.92h-2.77v3.76h-1v-8.36z" fill="#fff"/><rect x="260.68" y="105.18" width="112.42" height="29.17" rx="3.31" fill="#00da92"/><path d="M280.57 115v2.8h2.87v.9h-2.87v2.88h3.2v.9h-4.22v-8.38h4.22v.9zm7.98 7.5l-1.46-2.45-1.41 2.45h-1.07l2-3.27-2-3.31h1.16l1.47 2.44 1.39-2.44h1.08l-2 3.25 2 3.33zm4.11-6.31a2.63 2.63 0 0 1 1.41-.38 2.75 2.75 0 0 1 1.49.42 3 3 0 0 1 1.06 1.19 3.91 3.91 0 0 1 .38 1.77 4 4 0 0 1-.38 1.77 2.92 2.92 0 0 1-1.06 1.21 2.68 2.68 0 0 1-1.49.44 2.63 2.63 0 0 1-2.31-1.32v4.33h-1v-9.7h1v1.21a2.52 2.52 0 0 1 .9-.94zm3 1.7a2 2 0 0 0-1.82-1.13 1.93 1.93 0 0 0-1 .3 2.13 2.13 0 0 0-.77.85 2.79 2.79 0 0 0-.28 1.29 2.83 2.83 0 0 0 .28 1.3 2.13 2.13 0 0 0 .77.85 2 2 0 0 0 2.86-.85 2.84 2.84 0 0 0 .28-1.31 2.8 2.8 0 0 0-.31-1.3zm3.81 4.3a3 3 0 0 1-1.1-1.2 4.14 4.14 0 0 1 0-3.57 2.93 2.93 0 0 1 1.12-1.19 3.1 3.1 0 0 1 1.59-.42 3 3 0 0 1 1.59.42 2.84 2.84 0 0 1 1.12 1.18 4 4 0 0 1 0 3.58 3 3 0 0 1-1.14 1.2 3.13 3.13 0 0 1-1.6.42 3 3 0 0 1-1.58-.42zm2.62-.82a2 2 0 0 0 .78-.83 3.14 3.14 0 0 0 0-2.68 2 2 0 0 0-.76-.83 2.06 2.06 0 0 0-1-.27 2 2 0 0 0-1.75 1.1 2.86 2.86 0 0 0-.28 1.34 3 3 0 0 0 .27 1.35 2 2 0 0 0 1.74 1.1 2.13 2.13 0 0 0 1-.28zm5.28-5.26a2.32 2.32 0 0 1 1.22-.31v1.13h-.27c-1.15 0-1.73.66-1.73 2v3.58h-1v-6.58h1V117a2 2 0 0 1 .78-.89zm3.63.71v3.88a1 1 0 0 0 .19.68.9.9 0 0 0 .66.19h.76v.93h-.93a1.75 1.75 0 0 1-1.28-.42 1.86 1.86 0 0 1-.43-1.38v-3.88h-.8v-.9h.8v-1.65h1v1.65h1.61v.9zm2.88.6a2.9 2.9 0 0 1 1.05-1.19 2.78 2.78 0 0 1 1.5-.42 2.61 2.61 0 0 1 1.41.38 2.55 2.55 0 0 1 .89.93v-1.2h1v6.58h-1v-1.23a2.53 2.53 0 0 1-.91 1 2.6 2.6 0 0 1-1.4.38 2.66 2.66 0 0 1-1.49-.44 2.83 2.83 0 0 1-1.05-1.21 3.9 3.9 0 0 1-.39-1.77 3.79 3.79 0 0 1 .39-1.81zm4.56.48a2 2 0 0 0-2.86-.85 1.93 1.93 0 0 0-.75.84 2.8 2.8 0 0 0-.29 1.3 2.84 2.84 0 0 0 .29 1.31 2 2 0 0 0 3.61 0 2.83 2.83 0 0 0 .29-1.3 2.8 2.8 0 0 0-.29-1.3zm4.86-1.79a2.32 2.32 0 0 1 1.22-.31v1.13h-.27c-1.15 0-1.72.66-1.72 2v3.58h-1v-6.58h1V117a2 2 0 0 1 .77-.89zm6.44-1.11v2.8h2.87v.9h-2.87v2.88h3.2v.9h-4.22v-8.38h4.22v.9zm7.98 7.5l-1.46-2.45-1.41 2.45h-1.07l2-3.27-2-3.31h1.16l1.47 2.44 1.39-2.44h1.08l-2 3.25 2 3.33zm2.18-5.08a2.94 2.94 0 0 1 1.07-1.19 3.19 3.19 0 0 1 3.43.17 2.78 2.78 0 0 1 1 1.63h-1.1a1.67 1.67 0 0 0-.62-.94 1.81 1.81 0 0 0-1.13-.35 1.75 1.75 0 0 0-1.42.64 2.75 2.75 0 0 0-.54 1.82 2.77 2.77 0 0 0 .54 1.83 1.73 1.73 0 0 0 1.42.65 1.89 1.89 0 0 0 1.13-.33 1.79 1.79 0 0 0 .62-1h1.1a2.93 2.93 0 0 1-5.48.61 3.91 3.91 0 0 1-.38-1.8 3.83 3.83 0 0 1 .36-1.74zm12.45 2.2h-4.94a2.21 2.21 0 0 0 .63 1.52 1.93 1.93 0 0 0 1.38.54 1.83 1.83 0 0 0 1.11-.33 1.76 1.76 0 0 0 .62-.88h1.11a2.81 2.81 0 0 1-2.84 2.14 3 3 0 0 1-1.58-.42 2.87 2.87 0 0 1-1.08-1.2 3.78 3.78 0 0 1-.4-1.79 4 4 0 0 1 .38-1.79 2.81 2.81 0 0 1 1.08-1.18 3 3 0 0 1 1.6-.42 3 3 0 0 1 1.55.41 2.74 2.74 0 0 1 1 1.12 3.45 3.45 0 0 1 .37 1.62q.04.32.01.66zm-1.29-2a1.79 1.79 0 0 0-.7-.69 2.19 2.19 0 0 0-1-.23 1.79 1.79 0 0 0-1.32.53 2.17 2.17 0 0 0-.63 1.46h3.9a2 2 0 0 0-.25-1.03zm3.7-4v8.88h-1v-8.88z" fill="#fff"/></svg>